%TF.GenerationSoftware,KiCad,Pcbnew,9.0.1*%
%TF.CreationDate,2025-07-21T15:53:40-04:00*%
%TF.ProjectId,wrangler,7772616e-676c-4657-922e-6b696361645f,rev?*%
%TF.SameCoordinates,Original*%
%TF.FileFunction,Copper,L1,Top*%
%TF.FilePolarity,Positive*%
%FSLAX46Y46*%
G04 Gerber Fmt 4.6, Leading zero omitted, Abs format (unit mm)*
G04 Created by KiCad (PCBNEW 9.0.1) date 2025-07-21 15:53:40*
%MOMM*%
%LPD*%
G01*
G04 APERTURE LIST*
G04 Aperture macros list*
%AMRoundRect*
0 Rectangle with rounded corners*
0 $1 Rounding radius*
0 $2 $3 $4 $5 $6 $7 $8 $9 X,Y pos of 4 corners*
0 Add a 4 corners polygon primitive as box body*
4,1,4,$2,$3,$4,$5,$6,$7,$8,$9,$2,$3,0*
0 Add four circle primitives for the rounded corners*
1,1,$1+$1,$2,$3*
1,1,$1+$1,$4,$5*
1,1,$1+$1,$6,$7*
1,1,$1+$1,$8,$9*
0 Add four rect primitives between the rounded corners*
20,1,$1+$1,$2,$3,$4,$5,0*
20,1,$1+$1,$4,$5,$6,$7,0*
20,1,$1+$1,$6,$7,$8,$9,0*
20,1,$1+$1,$8,$9,$2,$3,0*%
G04 Aperture macros list end*
%TA.AperFunction,SMDPad,CuDef*%
%ADD10RoundRect,0.100000X-0.130000X-0.100000X0.130000X-0.100000X0.130000X0.100000X-0.130000X0.100000X0*%
%TD*%
%TA.AperFunction,SMDPad,CuDef*%
%ADD11RoundRect,0.250000X-1.000000X-0.650000X1.000000X-0.650000X1.000000X0.650000X-1.000000X0.650000X0*%
%TD*%
%TA.AperFunction,SMDPad,CuDef*%
%ADD12RoundRect,0.100000X0.130000X0.100000X-0.130000X0.100000X-0.130000X-0.100000X0.130000X-0.100000X0*%
%TD*%
%TA.AperFunction,SMDPad,CuDef*%
%ADD13RoundRect,0.243750X-0.243750X-0.456250X0.243750X-0.456250X0.243750X0.456250X-0.243750X0.456250X0*%
%TD*%
%TA.AperFunction,SMDPad,CuDef*%
%ADD14RoundRect,0.150000X-0.587500X-0.150000X0.587500X-0.150000X0.587500X0.150000X-0.587500X0.150000X0*%
%TD*%
%TA.AperFunction,SMDPad,CuDef*%
%ADD15RoundRect,0.100000X-0.100000X0.130000X-0.100000X-0.130000X0.100000X-0.130000X0.100000X0.130000X0*%
%TD*%
%TA.AperFunction,SMDPad,CuDef*%
%ADD16RoundRect,0.250000X-0.475000X0.250000X-0.475000X-0.250000X0.475000X-0.250000X0.475000X0.250000X0*%
%TD*%
%TA.AperFunction,SMDPad,CuDef*%
%ADD17RoundRect,0.250000X0.250000X0.475000X-0.250000X0.475000X-0.250000X-0.475000X0.250000X-0.475000X0*%
%TD*%
%TA.AperFunction,SMDPad,CuDef*%
%ADD18RoundRect,0.250000X0.475000X-0.250000X0.475000X0.250000X-0.475000X0.250000X-0.475000X-0.250000X0*%
%TD*%
%TA.AperFunction,SMDPad,CuDef*%
%ADD19RoundRect,0.250000X-0.250000X-0.475000X0.250000X-0.475000X0.250000X0.475000X-0.250000X0.475000X0*%
%TD*%
%TA.AperFunction,SMDPad,CuDef*%
%ADD20RoundRect,0.250000X0.275000X0.700000X-0.275000X0.700000X-0.275000X-0.700000X0.275000X-0.700000X0*%
%TD*%
%TA.AperFunction,SMDPad,CuDef*%
%ADD21RoundRect,0.100000X0.100000X-0.130000X0.100000X0.130000X-0.100000X0.130000X-0.100000X-0.130000X0*%
%TD*%
%TA.AperFunction,SMDPad,CuDef*%
%ADD22RoundRect,0.150000X-0.512500X-0.150000X0.512500X-0.150000X0.512500X0.150000X-0.512500X0.150000X0*%
%TD*%
%TA.AperFunction,ComponentPad*%
%ADD23C,2.775000*%
%TD*%
%TA.AperFunction,SMDPad,CuDef*%
%ADD24RoundRect,0.033750X0.371250X0.101250X-0.371250X0.101250X-0.371250X-0.101250X0.371250X-0.101250X0*%
%TD*%
%TA.AperFunction,SMDPad,CuDef*%
%ADD25RoundRect,0.033750X0.101250X0.371250X-0.101250X0.371250X-0.101250X-0.371250X0.101250X-0.371250X0*%
%TD*%
%TA.AperFunction,SMDPad,CuDef*%
%ADD26R,1.700000X1.700000*%
%TD*%
%TA.AperFunction,SMDPad,CuDef*%
%ADD27RoundRect,0.375000X0.375000X-0.625000X0.375000X0.625000X-0.375000X0.625000X-0.375000X-0.625000X0*%
%TD*%
%TA.AperFunction,SMDPad,CuDef*%
%ADD28RoundRect,0.500000X1.400000X-0.500000X1.400000X0.500000X-1.400000X0.500000X-1.400000X-0.500000X0*%
%TD*%
%TA.AperFunction,SMDPad,CuDef*%
%ADD29R,0.600000X1.450000*%
%TD*%
%TA.AperFunction,SMDPad,CuDef*%
%ADD30R,0.300000X1.450000*%
%TD*%
%TA.AperFunction,HeatsinkPad*%
%ADD31O,1.000000X2.100000*%
%TD*%
%TA.AperFunction,HeatsinkPad*%
%ADD32O,1.000000X1.600000*%
%TD*%
%TA.AperFunction,SMDPad,CuDef*%
%ADD33RoundRect,0.250000X0.650000X-1.000000X0.650000X1.000000X-0.650000X1.000000X-0.650000X-1.000000X0*%
%TD*%
%TA.AperFunction,ComponentPad*%
%ADD34R,2.550000X2.550000*%
%TD*%
%TA.AperFunction,ComponentPad*%
%ADD35C,2.550000*%
%TD*%
%TA.AperFunction,SMDPad,CuDef*%
%ADD36R,1.400000X1.200000*%
%TD*%
%TA.AperFunction,SMDPad,CuDef*%
%ADD37RoundRect,0.150000X-0.825000X-0.150000X0.825000X-0.150000X0.825000X0.150000X-0.825000X0.150000X0*%
%TD*%
%TA.AperFunction,HeatsinkPad*%
%ADD38C,0.500000*%
%TD*%
%TA.AperFunction,HeatsinkPad*%
%ADD39R,2.410000X3.300000*%
%TD*%
%TA.AperFunction,SMDPad,CuDef*%
%ADD40RoundRect,0.062500X0.350000X0.062500X-0.350000X0.062500X-0.350000X-0.062500X0.350000X-0.062500X0*%
%TD*%
%TA.AperFunction,SMDPad,CuDef*%
%ADD41RoundRect,0.062500X0.062500X0.350000X-0.062500X0.350000X-0.062500X-0.350000X0.062500X-0.350000X0*%
%TD*%
%TA.AperFunction,HeatsinkPad*%
%ADD42R,2.500000X2.500000*%
%TD*%
%TA.AperFunction,SMDPad,CuDef*%
%ADD43R,1.500000X5.080000*%
%TD*%
%TA.AperFunction,SMDPad,CuDef*%
%ADD44R,1.200000X1.400000*%
%TD*%
%TA.AperFunction,SMDPad,CuDef*%
%ADD45R,1.500000X0.550000*%
%TD*%
%TA.AperFunction,SMDPad,CuDef*%
%ADD46R,0.550000X1.500000*%
%TD*%
%TA.AperFunction,ViaPad*%
%ADD47C,0.600000*%
%TD*%
%TA.AperFunction,Conductor*%
%ADD48C,0.200000*%
%TD*%
G04 APERTURE END LIST*
D10*
%TO.P,C10,1*%
%TO.N,Net-(U4-DVDD)*%
X193835000Y-139000000D03*
%TO.P,C10,2*%
%TO.N,GND*%
X194475000Y-139000000D03*
%TD*%
D11*
%TO.P,D1,1,K*%
%TO.N,+5.3V*%
X187500000Y-116500000D03*
%TO.P,D1,2,A*%
%TO.N,Net-(D1-A)*%
X191500000Y-116500000D03*
%TD*%
D12*
%TO.P,C17,1*%
%TO.N,Net-(U5-ANT)*%
X181975000Y-139400000D03*
%TO.P,C17,2*%
%TO.N,GND*%
X181335000Y-139400000D03*
%TD*%
D11*
%TO.P,D3,1,K*%
%TO.N,+5V*%
X192500000Y-66750000D03*
%TO.P,D3,2,A*%
%TO.N,LowSwitch*%
X196500000Y-66750000D03*
%TD*%
D13*
%TO.P,D12,1,K*%
%TO.N,GND*%
X193075000Y-126000000D03*
%TO.P,D12,2,A*%
%TO.N,Net-(D12-A)*%
X194950000Y-126000000D03*
%TD*%
D12*
%TO.P,C22,1*%
%TO.N,GND*%
X205140000Y-100900000D03*
%TO.P,C22,2*%
%TO.N,Net-(U8-VCC)*%
X204500000Y-100900000D03*
%TD*%
%TO.P,C16,1*%
%TO.N,Net-(U5-ANT)*%
X181975000Y-137900000D03*
%TO.P,C16,2*%
%TO.N,GND*%
X181335000Y-137900000D03*
%TD*%
D14*
%TO.P,Q2,1,G*%
%TO.N,Vusb*%
X205125000Y-108050000D03*
%TO.P,Q2,2,S*%
%TO.N,Net-(D2-K)*%
X205125000Y-109950000D03*
%TO.P,Q2,3,D*%
%TO.N,+V_Batt*%
X207000000Y-109000000D03*
%TD*%
D15*
%TO.P,C14,1*%
%TO.N,Net-(C13-Pad1)*%
X183500000Y-133285000D03*
%TO.P,C14,2*%
%TO.N,+3.3V*%
X183500000Y-133925000D03*
%TD*%
D16*
%TO.P,R8,1*%
%TO.N,Net-(U5-TXEN)*%
X184750000Y-124500000D03*
%TO.P,R8,2*%
%TO.N,VDD_PA*%
X184750000Y-126400000D03*
%TD*%
D10*
%TO.P,L3,1,1*%
%TO.N,Net-(C6-Pad1)*%
X188335000Y-127000000D03*
%TO.P,L3,2,2*%
%TO.N,Net-(U4-ANT2)*%
X188975000Y-127000000D03*
%TD*%
D17*
%TO.P,R12,1*%
%TO.N,GND*%
X206900000Y-98900000D03*
%TO.P,R12,2*%
%TO.N,Net-(U8-GND)*%
X205000000Y-98900000D03*
%TD*%
D18*
%TO.P,R3,1*%
%TO.N,GND*%
X193500000Y-94950000D03*
%TO.P,R3,2*%
%TO.N,Net-(U2-PROG)*%
X193500000Y-93050000D03*
%TD*%
D19*
%TO.P,R9,1*%
%TO.N,Vusb*%
X205050000Y-104500000D03*
%TO.P,R9,2*%
%TO.N,GND*%
X206950000Y-104500000D03*
%TD*%
%TO.P,R5,1*%
%TO.N,GND*%
X191050000Y-141500000D03*
%TO.P,R5,2*%
%TO.N,Net-(U4-IREF)*%
X192950000Y-141500000D03*
%TD*%
D17*
%TO.P,R10,1*%
%TO.N,Net-(D11-A)*%
X184900000Y-106000000D03*
%TO.P,R10,2*%
%TO.N,+5V*%
X183000000Y-106000000D03*
%TD*%
D12*
%TO.P,C20,1*%
%TO.N,Net-(J2-In)*%
X186975000Y-141900000D03*
%TO.P,C20,2*%
%TO.N,GND*%
X186335000Y-141900000D03*
%TD*%
D20*
%TO.P,L5,1,1*%
%TO.N,Net-(D2-K)*%
X197400000Y-109250000D03*
%TO.P,L5,2,2*%
%TO.N,Net-(D1-A)*%
X194250000Y-109250000D03*
%TD*%
D12*
%TO.P,C19,1*%
%TO.N,Net-(C18-Pad1)*%
X186975000Y-138900000D03*
%TO.P,C19,2*%
%TO.N,GND*%
X186335000Y-138900000D03*
%TD*%
D21*
%TO.P,C28,1*%
%TO.N,+5V*%
X201000000Y-132820000D03*
%TO.P,C28,2*%
%TO.N,GND*%
X201000000Y-132180000D03*
%TD*%
D17*
%TO.P,R14,1*%
%TO.N,Net-(U8-VCC)*%
X206450000Y-95500000D03*
%TO.P,R14,2*%
%TO.N,+V_Batt*%
X204550000Y-95500000D03*
%TD*%
D22*
%TO.P,U8,1,OD*%
%TO.N,Net-(Q3-G1)*%
X200225000Y-99000000D03*
%TO.P,U8,2,CS*%
%TO.N,Net-(U8-CS)*%
X200225000Y-99950000D03*
%TO.P,U8,3,OC*%
%TO.N,Net-(Q3-G2)*%
X200225000Y-100900000D03*
%TO.P,U8,4,TD*%
%TO.N,unconnected-(U8-TD-Pad4)*%
X202500000Y-100900000D03*
%TO.P,U8,5,VCC*%
%TO.N,Net-(U8-VCC)*%
X202500000Y-99950000D03*
%TO.P,U8,6,GND*%
%TO.N,Net-(U8-GND)*%
X202500000Y-99000000D03*
%TD*%
D19*
%TO.P,R16,1*%
%TO.N,GND*%
X191600000Y-101250000D03*
%TO.P,R16,2*%
%TO.N,Net-(U9-FB)*%
X193500000Y-101250000D03*
%TD*%
D10*
%TO.P,C21,1*%
%TO.N,GND*%
X201525000Y-142000000D03*
%TO.P,C21,2*%
%TO.N,Vusb*%
X202165000Y-142000000D03*
%TD*%
D12*
%TO.P,L2,1,1*%
%TO.N,VDD_PA*%
X188973687Y-125500000D03*
%TO.P,L2,2,2*%
%TO.N,Net-(U4-ANT1)*%
X188333687Y-125500000D03*
%TD*%
%TO.P,C6,1*%
%TO.N,Net-(C6-Pad1)*%
X186600000Y-129285000D03*
%TO.P,C6,2*%
%TO.N,Net-(U5-TXRX)*%
X185960000Y-129285000D03*
%TD*%
D16*
%TO.P,R6,1*%
%TO.N,CE*%
X182250000Y-124500000D03*
%TO.P,R6,2*%
%TO.N,Net-(U5-RXEN)*%
X182250000Y-126400000D03*
%TD*%
D10*
%TO.P,C23,1*%
%TO.N,Net-(D2-K)*%
X205835000Y-112500000D03*
%TO.P,C23,2*%
%TO.N,GND*%
X206475000Y-112500000D03*
%TD*%
D17*
%TO.P,R13,1*%
%TO.N,Net-(U8-CS)*%
X206450000Y-92500000D03*
%TO.P,R13,2*%
%TO.N,GND*%
X204550000Y-92500000D03*
%TD*%
D22*
%TO.P,U9,1,SW*%
%TO.N,Net-(D1-A)*%
X196125000Y-104550000D03*
%TO.P,U9,2,GND*%
%TO.N,GND*%
X196125000Y-105500000D03*
%TO.P,U9,3,FB*%
%TO.N,Net-(U9-FB)*%
X196125000Y-106450000D03*
%TO.P,U9,4,EN*%
%TO.N,Net-(D2-K)*%
X198400000Y-106450000D03*
%TO.P,U9,5,IN*%
X198400000Y-105500000D03*
%TO.P,U9,6,NC*%
%TO.N,unconnected-(U9-NC-Pad6)*%
X198400000Y-104550000D03*
%TD*%
D10*
%TO.P,C30,1*%
%TO.N,Net-(U3-XTAL2)*%
X205049466Y-132995460D03*
%TO.P,C30,2*%
%TO.N,GND*%
X205689466Y-132995460D03*
%TD*%
D21*
%TO.P,C29,1*%
%TO.N,+5V*%
X202369466Y-132815460D03*
%TO.P,C29,2*%
%TO.N,GND*%
X202369466Y-132175460D03*
%TD*%
D12*
%TO.P,L6,1,1*%
%TO.N,Net-(C18-Pad1)*%
X186975000Y-140400000D03*
%TO.P,L6,2,2*%
%TO.N,Net-(J2-In)*%
X186335000Y-140400000D03*
%TD*%
D21*
%TO.P,C11,1*%
%TO.N,Net-(U4-XC2)*%
X194250000Y-131415000D03*
%TO.P,C11,2*%
%TO.N,GND*%
X194250000Y-130775000D03*
%TD*%
%TO.P,C12,1*%
%TO.N,Net-(U4-XC1)*%
X195500000Y-131415000D03*
%TO.P,C12,2*%
%TO.N,GND*%
X195500000Y-130775000D03*
%TD*%
D19*
%TO.P,R19,1*%
%TO.N,Net-(U3-PB7)*%
X193050000Y-123500000D03*
%TO.P,R19,2*%
%TO.N,Net-(D12-A)*%
X194950000Y-123500000D03*
%TD*%
D12*
%TO.P,C8,1*%
%TO.N,+3.3V*%
X195283379Y-142500000D03*
%TO.P,C8,2*%
%TO.N,GND*%
X194643379Y-142500000D03*
%TD*%
D23*
%TO.P,J-LED1,1,1*%
%TO.N,GND*%
X186100000Y-62500000D03*
%TO.P,J-LED1,2,2*%
%TO.N,+5V*%
X181900000Y-62500000D03*
%TD*%
D10*
%TO.P,C31,1*%
%TO.N,Net-(U3-XTAL1)*%
X205055712Y-131796221D03*
%TO.P,C31,2*%
%TO.N,GND*%
X205695712Y-131796221D03*
%TD*%
D18*
%TO.P,R7,1*%
%TO.N,GND*%
X179750000Y-126400000D03*
%TO.P,R7,2*%
%TO.N,Net-(U5-RXEN)*%
X179750000Y-124500000D03*
%TD*%
D10*
%TO.P,C24,1*%
%TO.N,GND*%
X186430000Y-111000000D03*
%TO.P,C24,2*%
%TO.N,+5.3V*%
X187070000Y-111000000D03*
%TD*%
D23*
%TO.P,J-Trigger1,1,1*%
%TO.N,GND*%
X186100000Y-81500000D03*
%TO.P,J-Trigger1,2,2*%
%TO.N,GPIO5*%
X181900000Y-81500000D03*
%TD*%
D13*
%TO.P,D10,1,K*%
%TO.N,Net-(D10-K)*%
X207525000Y-88000000D03*
%TO.P,D10,2,A*%
%TO.N,Vusb*%
X209400000Y-88000000D03*
%TD*%
D24*
%TO.P,U5,1*%
%TO.N,N/C*%
X184195000Y-130755000D03*
%TO.P,U5,2,GND*%
%TO.N,GND*%
X184195000Y-130255000D03*
%TO.P,U5,3,GND*%
X184195000Y-129755000D03*
%TO.P,U5,4,TXRX*%
%TO.N,Net-(U5-TXRX)*%
X184195000Y-129255000D03*
D25*
%TO.P,U5,5,TXEN*%
%TO.N,Net-(U5-TXEN)*%
X183500000Y-128560000D03*
%TO.P,U5,6,RXEN*%
%TO.N,Net-(U5-RXEN)*%
X183000000Y-128560000D03*
%TO.P,U5,7*%
%TO.N,N/C*%
X182500000Y-128560000D03*
%TO.P,U5,8,GND*%
%TO.N,GND*%
X182000000Y-128560000D03*
D24*
%TO.P,U5,9,GND*%
X181305000Y-129255000D03*
%TO.P,U5,10,ANT*%
%TO.N,Net-(U5-ANT)*%
X181305000Y-129755000D03*
%TO.P,U5,11,GND*%
%TO.N,GND*%
X181305000Y-130255000D03*
%TO.P,U5,12*%
%TO.N,N/C*%
X181305000Y-130755000D03*
D25*
%TO.P,U5,13*%
X182000000Y-131450000D03*
%TO.P,U5,14,VDD*%
%TO.N,Net-(C13-Pad1)*%
X182500000Y-131450000D03*
%TO.P,U5,15*%
%TO.N,N/C*%
X183000000Y-131450000D03*
%TO.P,U5,16,VDD*%
%TO.N,Net-(C13-Pad1)*%
X183500000Y-131450000D03*
D26*
%TO.P,U5,17,GND*%
%TO.N,GND*%
X182750000Y-130005000D03*
%TD*%
D12*
%TO.P,C7,1*%
%TO.N,GND*%
X186600000Y-130785000D03*
%TO.P,C7,2*%
%TO.N,Net-(U5-TXRX)*%
X185960000Y-130785000D03*
%TD*%
D10*
%TO.P,C26,1*%
%TO.N,+3.3V*%
X186025000Y-97000000D03*
%TO.P,C26,2*%
%TO.N,GND*%
X186665000Y-97000000D03*
%TD*%
D17*
%TO.P,R15,1*%
%TO.N,Net-(U9-FB)*%
X193500000Y-103750000D03*
%TO.P,R15,2*%
%TO.N,+5.3V*%
X191600000Y-103750000D03*
%TD*%
D23*
%TO.P,J-BattLED1,1,1*%
%TO.N,GND*%
X186100000Y-91000000D03*
%TO.P,J-BattLED1,2,2*%
%TO.N,+5V*%
X181900000Y-91000000D03*
%TD*%
D19*
%TO.P,R2,1*%
%TO.N,Net-(U2-~{CHRG})*%
X203500000Y-88000000D03*
%TO.P,R2,2*%
%TO.N,Net-(D10-K)*%
X205400000Y-88000000D03*
%TD*%
D27*
%TO.P,U6,1,ADJ*%
%TO.N,GND*%
X179400000Y-103000000D03*
%TO.P,U6,2,VO*%
%TO.N,+3.3V*%
X181700000Y-103000000D03*
D28*
X181700000Y-96700000D03*
D27*
%TO.P,U6,3,VI*%
%TO.N,+5V*%
X184000000Y-103000000D03*
%TD*%
D12*
%TO.P,C5,1*%
%TO.N,VDD_PA*%
X189665000Y-136000000D03*
%TO.P,C5,2*%
%TO.N,GND*%
X189025000Y-136000000D03*
%TD*%
%TO.P,C4,1*%
%TO.N,VDD_PA*%
X189665000Y-134500000D03*
%TO.P,C4,2*%
%TO.N,GND*%
X189025000Y-134500000D03*
%TD*%
D13*
%TO.P,D9,1,K*%
%TO.N,Net-(D9-K)*%
X207500000Y-84500000D03*
%TO.P,D9,2,A*%
%TO.N,Vusb*%
X209375000Y-84500000D03*
%TD*%
D12*
%TO.P,C32,1*%
%TO.N,Net-(U3-UCAP)*%
X195320000Y-121750000D03*
%TO.P,C32,2*%
%TO.N,GND*%
X194680000Y-121750000D03*
%TD*%
D17*
%TO.P,R18,1*%
%TO.N,GND*%
X209450000Y-141250000D03*
%TO.P,R18,2*%
%TO.N,Net-(J1-CC2)*%
X207550000Y-141250000D03*
%TD*%
D12*
%TO.P,C18,1*%
%TO.N,Net-(C18-Pad1)*%
X181975000Y-142400000D03*
%TO.P,C18,2*%
%TO.N,GND*%
X181335000Y-142400000D03*
%TD*%
D29*
%TO.P,J1,A1,GND*%
%TO.N,GND*%
X200360000Y-143905000D03*
%TO.P,J1,A4,VBUS*%
%TO.N,Vusb*%
X201160000Y-143905000D03*
D30*
%TO.P,J1,A5,CC1*%
%TO.N,Net-(J1-CC1)*%
X202360000Y-143905000D03*
%TO.P,J1,A6,D+*%
%TO.N,D+*%
X203360000Y-143905000D03*
%TO.P,J1,A7,D-*%
%TO.N,D-*%
X203860000Y-143905000D03*
%TO.P,J1,A8,SBU1*%
%TO.N,unconnected-(J1-SBU1-PadA8)*%
X204860000Y-143905000D03*
D29*
%TO.P,J1,A9,VBUS*%
%TO.N,Vusb*%
X206060000Y-143905000D03*
%TO.P,J1,A12,GND*%
%TO.N,GND*%
X206860000Y-143905000D03*
%TO.P,J1,B1,GND*%
X206860000Y-143905000D03*
%TO.P,J1,B4,VBUS*%
%TO.N,Vusb*%
X206060000Y-143905000D03*
D30*
%TO.P,J1,B5,CC2*%
%TO.N,Net-(J1-CC2)*%
X205360000Y-143905000D03*
%TO.P,J1,B6,D+*%
%TO.N,D+*%
X204360000Y-143905000D03*
%TO.P,J1,B7,D-*%
%TO.N,D-*%
X202860000Y-143905000D03*
%TO.P,J1,B8,SBU2*%
%TO.N,unconnected-(J1-SBU2-PadB8)*%
X201860000Y-143905000D03*
D29*
%TO.P,J1,B9,VBUS*%
%TO.N,Vusb*%
X201160000Y-143905000D03*
%TO.P,J1,B12,GND*%
%TO.N,GND*%
X200360000Y-143905000D03*
D31*
%TO.P,J1,S1,SHIELD*%
X199290000Y-144820000D03*
D32*
X199290000Y-149000000D03*
D31*
X207930000Y-144820000D03*
D32*
X207930000Y-149000000D03*
%TD*%
D33*
%TO.P,D2,1,K*%
%TO.N,Net-(D2-K)*%
X202000000Y-110500000D03*
%TO.P,D2,2,A*%
%TO.N,Vusb*%
X202000000Y-106500000D03*
%TD*%
D12*
%TO.P,C9,1*%
%TO.N,GND*%
X195270000Y-141000000D03*
%TO.P,C9,2*%
%TO.N,+3.3V*%
X194630000Y-141000000D03*
%TD*%
D19*
%TO.P,R1,1*%
%TO.N,Net-(U2-~{STDBY})*%
X203500000Y-84500000D03*
%TO.P,R1,2*%
%TO.N,Net-(D9-K)*%
X205400000Y-84500000D03*
%TD*%
D34*
%TO.P,J-Joystick1,1,1*%
%TO.N,GPIO1*%
X194700000Y-73500000D03*
D35*
%TO.P,J-Joystick1,2,2*%
%TO.N,GPIO2*%
X194700000Y-77700000D03*
%TO.P,J-Joystick1,3,3*%
%TO.N,GPIO3*%
X198900000Y-73500000D03*
%TO.P,J-Joystick1,4,4*%
%TO.N,GPIO4*%
X198900000Y-77700000D03*
%TO.P,J-Joystick1,5,5*%
%TO.N,unconnected-(J-Joystick1-Pad5)*%
X203100000Y-73500000D03*
%TO.P,J-Joystick1,6,6*%
%TO.N,GND*%
X203100000Y-77700000D03*
%TD*%
D15*
%TO.P,C13,1*%
%TO.N,Net-(C13-Pad1)*%
X182100000Y-133310000D03*
%TO.P,C13,2*%
%TO.N,+3.3V*%
X182100000Y-133950000D03*
%TD*%
D11*
%TO.P,D4,1,K*%
%TO.N,+5V*%
X192500000Y-61500000D03*
%TO.P,D4,2,A*%
%TO.N,HighSwitch*%
X196500000Y-61500000D03*
%TD*%
D36*
%TO.P,Y2,1,1*%
%TO.N,Net-(U3-XTAL1)*%
X205169466Y-136495460D03*
%TO.P,Y2,2,2*%
%TO.N,GND*%
X207369466Y-136495460D03*
%TO.P,Y2,3,3*%
%TO.N,Net-(U3-XTAL2)*%
X207369466Y-134795460D03*
%TO.P,Y2,4,4*%
%TO.N,GND*%
X205169466Y-134795460D03*
%TD*%
D23*
%TO.P,J-18650,1,1*%
%TO.N,-V_Batt*%
X194250000Y-86500000D03*
%TO.P,J-18650,2,2*%
%TO.N,+V_Batt*%
X198450000Y-86500000D03*
%TD*%
D16*
%TO.P,R17,1*%
%TO.N,Net-(U3-~{RESET})*%
X199000000Y-130000000D03*
%TO.P,R17,2*%
%TO.N,+5V*%
X199000000Y-131900000D03*
%TD*%
D37*
%TO.P,U2,1,TEMP*%
%TO.N,unconnected-(U2-TEMP-Pad1)*%
X196500000Y-91895000D03*
%TO.P,U2,2,PROG*%
%TO.N,Net-(U2-PROG)*%
X196500000Y-93165000D03*
%TO.P,U2,3,GND*%
%TO.N,GND*%
X196500000Y-94435000D03*
%TO.P,U2,4,V_{CC}*%
%TO.N,Vusb*%
X196500000Y-95705000D03*
%TO.P,U2,5,BAT*%
%TO.N,+V_Batt*%
X201450000Y-95705000D03*
%TO.P,U2,6,~{STDBY}*%
%TO.N,Net-(U2-~{STDBY})*%
X201450000Y-94435000D03*
%TO.P,U2,7,~{CHRG}*%
%TO.N,Net-(U2-~{CHRG})*%
X201450000Y-93165000D03*
%TO.P,U2,8,CE*%
%TO.N,Vusb*%
X201450000Y-91895000D03*
D38*
%TO.P,U2,9,EPAD*%
%TO.N,GND*%
X198275000Y-92600000D03*
X198275000Y-93800000D03*
X198275000Y-95000000D03*
D39*
X198975000Y-93800000D03*
D38*
X199675000Y-92600000D03*
X199675000Y-93800000D03*
X199675000Y-95000000D03*
%TD*%
D34*
%TO.P,J-PowerSwitch1,1,1*%
%TO.N,HighSwitch*%
X201800000Y-61500000D03*
D35*
%TO.P,J-PowerSwitch1,2,2*%
%TO.N,LowSwitch*%
X201800000Y-65700000D03*
%TO.P,J-PowerSwitch1,3,3*%
%TO.N,unconnected-(J-PowerSwitch1-Pad3)*%
X206000000Y-61500000D03*
%TO.P,J-PowerSwitch1,4,4*%
%TO.N,+5.3V*%
X206000000Y-65700000D03*
%TD*%
D15*
%TO.P,C15,1*%
%TO.N,Net-(C13-Pad1)*%
X185000000Y-133285000D03*
%TO.P,C15,2*%
%TO.N,+3.3V*%
X185000000Y-133925000D03*
%TD*%
D40*
%TO.P,U4,1,CE*%
%TO.N,CE*%
X195375000Y-136500000D03*
%TO.P,U4,2,CSN*%
%TO.N,CSN*%
X195375000Y-136000000D03*
%TO.P,U4,3,SCK*%
%TO.N,SCK*%
X195375000Y-135500000D03*
%TO.P,U4,4,MOSI*%
%TO.N,MOSI*%
X195375000Y-135000000D03*
%TO.P,U4,5,MISO*%
%TO.N,MISO*%
X195375000Y-134500000D03*
D41*
%TO.P,U4,6,IRQ*%
%TO.N,IRQ*%
X194437500Y-133562500D03*
%TO.P,U4,7,VDD*%
%TO.N,+3.3V*%
X193937500Y-133562500D03*
%TO.P,U4,8,VSS*%
%TO.N,GND*%
X193437500Y-133562500D03*
%TO.P,U4,9,XC2*%
%TO.N,Net-(U4-XC2)*%
X192937500Y-133562500D03*
%TO.P,U4,10,XC1*%
%TO.N,Net-(U4-XC1)*%
X192437500Y-133562500D03*
D40*
%TO.P,U4,11,VDD_PA*%
%TO.N,VDD_PA*%
X191500000Y-134500000D03*
%TO.P,U4,12,ANT1*%
%TO.N,Net-(U4-ANT1)*%
X191500000Y-135000000D03*
%TO.P,U4,13,ANT2*%
%TO.N,Net-(U4-ANT2)*%
X191500000Y-135500000D03*
%TO.P,U4,14,VSS*%
%TO.N,GND*%
X191500000Y-136000000D03*
%TO.P,U4,15,VDD*%
%TO.N,+3.3V*%
X191500000Y-136500000D03*
D41*
%TO.P,U4,16,IREF*%
%TO.N,Net-(U4-IREF)*%
X192437500Y-137437500D03*
%TO.P,U4,17,VSS*%
%TO.N,GND*%
X192937500Y-137437500D03*
%TO.P,U4,18,VDD*%
%TO.N,+3.3V*%
X193437500Y-137437500D03*
%TO.P,U4,19,DVDD*%
%TO.N,Net-(U4-DVDD)*%
X193937500Y-137437500D03*
%TO.P,U4,20,VSS*%
%TO.N,GND*%
X194437500Y-137437500D03*
D42*
%TO.P,U4,21*%
%TO.N,N/C*%
X193437500Y-135500000D03*
%TD*%
D12*
%TO.P,L1,1,1*%
%TO.N,Net-(U4-ANT1)*%
X188976997Y-124000000D03*
%TO.P,L1,2,2*%
%TO.N,Net-(U4-ANT2)*%
X188336997Y-124000000D03*
%TD*%
D10*
%TO.P,C1,1*%
%TO.N,Vusb*%
X204585000Y-90000000D03*
%TO.P,C1,2*%
%TO.N,GND*%
X205225000Y-90000000D03*
%TD*%
D23*
%TO.P,J-Spare1,1,1*%
%TO.N,GND*%
X186100000Y-72000000D03*
%TO.P,J-Spare1,2,2*%
%TO.N,GPIO6*%
X181900000Y-72000000D03*
%TD*%
D13*
%TO.P,D11,1,K*%
%TO.N,GND*%
X179012500Y-106000000D03*
%TO.P,D11,2,A*%
%TO.N,Net-(D11-A)*%
X180887500Y-106000000D03*
%TD*%
D10*
%TO.P,C25,1*%
%TO.N,+5V*%
X186180000Y-103000000D03*
%TO.P,C25,2*%
%TO.N,GND*%
X186820000Y-103000000D03*
%TD*%
%TO.P,C27,1*%
%TO.N,Vusb*%
X201525000Y-140500000D03*
%TO.P,C27,2*%
%TO.N,GND*%
X202165000Y-140500000D03*
%TD*%
D43*
%TO.P,J2,1,In*%
%TO.N,Net-(J2-In)*%
X185000000Y-147137500D03*
%TO.P,J2,2,Ext*%
%TO.N,GND*%
X189250000Y-147137500D03*
X180750000Y-147137500D03*
%TD*%
D12*
%TO.P,L4,1,1*%
%TO.N,Net-(U5-ANT)*%
X181975000Y-140900000D03*
%TO.P,L4,2,2*%
%TO.N,Net-(C18-Pad1)*%
X181335000Y-140900000D03*
%TD*%
D44*
%TO.P,Y1,1,1*%
%TO.N,Net-(U4-XC2)*%
X192250000Y-130700000D03*
%TO.P,Y1,2,2*%
%TO.N,GND*%
X192250000Y-128500000D03*
%TO.P,Y1,3,3*%
%TO.N,Net-(U4-XC1)*%
X190550000Y-128500000D03*
%TO.P,Y1,4,4*%
%TO.N,GND*%
X190550000Y-130700000D03*
%TD*%
D22*
%TO.P,Q3,1,S1*%
%TO.N,-V_Batt*%
X195500000Y-99000000D03*
%TO.P,Q3,2,D1/D2_1*%
%TO.N,unconnected-(Q3-D1{slash}D2_1-Pad2)*%
X195500000Y-99950000D03*
%TO.P,Q3,3,S2*%
%TO.N,GND*%
X195500000Y-100900000D03*
%TO.P,Q3,4,G2*%
%TO.N,Net-(Q3-G2)*%
X197775000Y-100900000D03*
%TO.P,Q3,5,D1/D2_2*%
%TO.N,unconnected-(Q3-D1{slash}D2_2-Pad5)*%
X197775000Y-99950000D03*
%TO.P,Q3,6,G1*%
%TO.N,Net-(Q3-G1)*%
X197775000Y-99000000D03*
%TD*%
D17*
%TO.P,R11,1*%
%TO.N,GND*%
X209400000Y-139000000D03*
%TO.P,R11,2*%
%TO.N,Net-(J1-CC1)*%
X207500000Y-139000000D03*
%TD*%
D45*
%TO.P,U3,1,PE6*%
%TO.N,unconnected-(U3-PE6-Pad1)*%
X197300000Y-116800000D03*
%TO.P,U3,2,UVCC*%
%TO.N,+5V*%
X197300000Y-117600000D03*
%TO.P,U3,3,D-*%
%TO.N,D-*%
X197300000Y-118400000D03*
%TO.P,U3,4,D+*%
%TO.N,D+*%
X197300000Y-119200000D03*
%TO.P,U3,5,UGND*%
%TO.N,GND*%
X197300000Y-120000000D03*
%TO.P,U3,6,UCAP*%
%TO.N,Net-(U3-UCAP)*%
X197300000Y-120800000D03*
%TO.P,U3,7,VBUS*%
%TO.N,+5V*%
X197300000Y-121600000D03*
%TO.P,U3,8,PB0*%
%TO.N,CSN*%
X197300000Y-122400000D03*
%TO.P,U3,9,PB1*%
%TO.N,SCK*%
X197300000Y-123200000D03*
%TO.P,U3,10,PB2*%
%TO.N,MOSI*%
X197300000Y-124000000D03*
%TO.P,U3,11,PB3*%
%TO.N,MISO*%
X197300000Y-124800000D03*
D46*
%TO.P,U3,12,PB7*%
%TO.N,Net-(U3-PB7)*%
X199000000Y-126500000D03*
%TO.P,U3,13,~{RESET}*%
%TO.N,Net-(U3-~{RESET})*%
X199800000Y-126500000D03*
%TO.P,U3,14,VCC*%
%TO.N,+5V*%
X200600000Y-126500000D03*
%TO.P,U3,15,GND*%
%TO.N,GND*%
X201400000Y-126500000D03*
%TO.P,U3,16,XTAL2*%
%TO.N,Net-(U3-XTAL2)*%
X202200000Y-126500000D03*
%TO.P,U3,17,XTAL1*%
%TO.N,Net-(U3-XTAL1)*%
X203000000Y-126500000D03*
%TO.P,U3,18,PD0*%
%TO.N,IRQ*%
X203800000Y-126500000D03*
%TO.P,U3,19,PD1*%
%TO.N,GPIO1*%
X204600000Y-126500000D03*
%TO.P,U3,20,PD2*%
%TO.N,GPIO2*%
X205400000Y-126500000D03*
%TO.P,U3,21,PD3*%
%TO.N,GPIO3*%
X206200000Y-126500000D03*
%TO.P,U3,22,PD5*%
%TO.N,GPIO5*%
X207000000Y-126500000D03*
D45*
%TO.P,U3,23,GND*%
%TO.N,GND*%
X208700000Y-124800000D03*
%TO.P,U3,24,AVCC*%
%TO.N,+5V*%
X208700000Y-124000000D03*
%TO.P,U3,25,PD4*%
%TO.N,GPIO4*%
X208700000Y-123200000D03*
%TO.P,U3,26,PD6*%
%TO.N,GPIO6*%
X208700000Y-122400000D03*
%TO.P,U3,27,PD7*%
%TO.N,CE*%
X208700000Y-121600000D03*
%TO.P,U3,28,PB4*%
%TO.N,unconnected-(U3-PB4-Pad28)*%
X208700000Y-120800000D03*
%TO.P,U3,29,PB5*%
%TO.N,unconnected-(U3-PB5-Pad29)*%
X208700000Y-120000000D03*
%TO.P,U3,30,PB6*%
%TO.N,unconnected-(U3-PB6-Pad30)*%
X208700000Y-119200000D03*
%TO.P,U3,31,PC6*%
%TO.N,unconnected-(U3-PC6-Pad31)*%
X208700000Y-118400000D03*
%TO.P,U3,32,PC7*%
%TO.N,unconnected-(U3-PC7-Pad32)*%
X208700000Y-117600000D03*
%TO.P,U3,33,~{HWB}/PE2*%
%TO.N,unconnected-(U3-~{HWB}{slash}PE2-Pad33)*%
X208700000Y-116800000D03*
D46*
%TO.P,U3,34,VCC*%
%TO.N,+5V*%
X207000000Y-115100000D03*
%TO.P,U3,35,GND*%
%TO.N,GND*%
X206200000Y-115100000D03*
%TO.P,U3,36,PF7*%
%TO.N,unconnected-(U3-PF7-Pad36)*%
X205400000Y-115100000D03*
%TO.P,U3,37,PF6*%
%TO.N,unconnected-(U3-PF6-Pad37)*%
X204600000Y-115100000D03*
%TO.P,U3,38,PF5*%
%TO.N,unconnected-(U3-PF5-Pad38)*%
X203800000Y-115100000D03*
%TO.P,U3,39,PF4*%
%TO.N,unconnected-(U3-PF4-Pad39)*%
X203000000Y-115100000D03*
%TO.P,U3,40,PF1*%
%TO.N,HighSwitch*%
X202200000Y-115100000D03*
%TO.P,U3,41,PF0*%
%TO.N,LowSwitch*%
X201400000Y-115100000D03*
%TO.P,U3,42,AREF*%
%TO.N,unconnected-(U3-AREF-Pad42)*%
X200600000Y-115100000D03*
%TO.P,U3,43,GND*%
%TO.N,GND*%
X199800000Y-115100000D03*
%TO.P,U3,44,AVCC*%
%TO.N,+5V*%
X199000000Y-115100000D03*
%TD*%
D47*
%TO.N,CE*%
X183000000Y-123500000D03*
X190750000Y-143750000D03*
%TO.N,HighSwitch*%
X208750000Y-89500000D03*
X209000000Y-102500000D03*
%TO.N,LowSwitch*%
X208000000Y-89750000D03*
X208300000Y-103250000D03*
%TO.N,HighSwitch*%
X202340904Y-114115544D03*
%TO.N,LowSwitch*%
X201500000Y-114115544D03*
%TO.N,+5V*%
X184000000Y-107450000D03*
X201650000Y-129250000D03*
X201250000Y-124000000D03*
X202750000Y-123250000D03*
X195750000Y-118000000D03*
X196000000Y-122000000D03*
X207250000Y-123500000D03*
X204050000Y-122000000D03*
X202250000Y-118000000D03*
X200750000Y-118000000D03*
%TO.N,Net-(U5-ANT)*%
X182750000Y-138000000D03*
X181000000Y-136500000D03*
%TO.N,+3.3V*%
X181250000Y-134000000D03*
X181750000Y-104750000D03*
X194500000Y-140000000D03*
%TO.N,Net-(D1-A)*%
X191750000Y-113000000D03*
%TO.N,GND*%
X196500000Y-137500000D03*
X192000000Y-125000000D03*
X208500000Y-136500000D03*
X180500000Y-101250000D03*
X207058997Y-133636461D03*
X187500000Y-100000000D03*
X185500000Y-101000000D03*
X206750000Y-111000000D03*
X209000000Y-126000000D03*
X207000000Y-106500000D03*
X191500000Y-99000000D03*
X203500000Y-125000000D03*
X194000000Y-121750000D03*
X189250000Y-147137500D03*
X186500000Y-130000000D03*
X180750000Y-147137500D03*
X185000000Y-130250000D03*
X201750000Y-139250000D03*
%TO.N,Vusb*%
X197000000Y-96750000D03*
X200000000Y-103100000D03*
X199750000Y-91500000D03*
X197000000Y-95750000D03*
X209250000Y-113500000D03*
X203000000Y-141250000D03*
%TO.N,VDD_PA*%
X190000000Y-132500000D03*
X190250000Y-126250000D03*
%TO.N,+3.3V*%
X190250000Y-138000000D03*
X187463235Y-136713235D03*
X193250000Y-138500000D03*
X196031700Y-132531700D03*
%TO.N,Net-(U4-XC1)*%
X191750000Y-132500000D03*
X189449998Y-130000000D03*
X194948952Y-131587217D03*
%TO.N,Net-(J2-In)*%
X185700735Y-143549265D03*
X187065000Y-141882042D03*
X185500000Y-140301000D03*
%TO.N,+5.3V*%
X187250000Y-108000000D03*
X191250000Y-104750000D03*
%TO.N,+5V*%
X184000000Y-99250000D03*
X183250000Y-94000000D03*
%TO.N,Net-(U3-XTAL1)*%
X203750000Y-136250000D03*
X205000000Y-131000000D03*
%TO.N,Net-(D1-A)*%
X195350000Y-103500000D03*
X194250000Y-107750000D03*
%TO.N,+V_Batt*%
X207750000Y-101750000D03*
X200000000Y-90500000D03*
X203250000Y-96000000D03*
%TO.N,-V_Batt*%
X194750000Y-91250000D03*
X194750000Y-97750000D03*
%TO.N,GPIO4*%
X204750000Y-112250000D03*
X207000000Y-117250000D03*
%TO.N,GPIO2*%
X203500000Y-113565544D03*
X204750000Y-117500000D03*
%TO.N,GPIO3*%
X204392228Y-112965544D03*
X206000000Y-117500000D03*
%TO.N,GPIO1*%
X203500000Y-117250000D03*
X197500000Y-114500000D03*
%TO.N,GPIO6*%
X207250000Y-121250000D03*
X197000000Y-115250000D03*
%TO.N,GPIO5*%
X207000000Y-124250000D03*
X195750000Y-116250000D03*
%TO.N,D-*%
X200250000Y-139250000D03*
X199450735Y-119549265D03*
X200000000Y-133850000D03*
X203315629Y-142680000D03*
%TO.N,D+*%
X203260000Y-145434669D03*
X199233736Y-134079879D03*
X199450007Y-139246120D03*
X204460000Y-145200735D03*
X199230425Y-120318334D03*
%TO.N,Net-(U4-ANT2)*%
X190265000Y-135264705D03*
X187400000Y-128783528D03*
X189500000Y-127000000D03*
X188000000Y-124750000D03*
%TO.N,Net-(U4-ANT1)*%
X190500000Y-134500000D03*
X189000000Y-123250000D03*
%TO.N,Net-(U2-~{STDBY})*%
X202250000Y-90000000D03*
X203000000Y-91250000D03*
%TO.N,Net-(U2-~{CHRG})*%
X202868050Y-92317816D03*
X203750000Y-89400000D03*
%TO.N,Net-(U4-IREF)*%
X191750000Y-138750000D03*
X193500000Y-140250000D03*
%TO.N,CE*%
X198850007Y-136500000D03*
X209000000Y-127000000D03*
%TO.N,Net-(U8-GND)*%
X205250000Y-97750000D03*
X203425735Y-97675735D03*
%TO.N,Net-(U8-CS)*%
X199000000Y-99750000D03*
X204000000Y-96750000D03*
X199250000Y-97750000D03*
X207500000Y-93750000D03*
%TO.N,Net-(U3-~{RESET})*%
X200600000Y-130250000D03*
X200250000Y-127750000D03*
%TO.N,Net-(U3-PB7)*%
X193750000Y-124750000D03*
X198000000Y-126500000D03*
%TO.N,CSN*%
X201600000Y-128361741D03*
X198536966Y-134519485D03*
X198500000Y-129000000D03*
X200251000Y-123000000D03*
%TO.N,IRQ*%
X203000000Y-133500000D03*
X203750000Y-128250000D03*
%TO.N,MOSI*%
X197034244Y-134057267D03*
X197232700Y-126750000D03*
%TO.N,SCK*%
X198001000Y-127750000D03*
X197829260Y-134146449D03*
X201086257Y-127748498D03*
X200100000Y-125080882D03*
%TO.N,MISO*%
X196250000Y-133899265D03*
X196500000Y-126000000D03*
%TD*%
D48*
%TO.N,CE*%
X195375000Y-136500000D02*
X196279232Y-136500000D01*
X194762539Y-143750000D02*
X190750000Y-143750000D01*
X197051000Y-137271768D02*
X197051000Y-141461539D01*
X197051000Y-141461539D02*
X194762539Y-143750000D01*
X183000000Y-123750000D02*
X182250000Y-124500000D01*
X196279232Y-136500000D02*
X197051000Y-137271768D01*
X183000000Y-123500000D02*
X183000000Y-123750000D01*
%TO.N,HighSwitch*%
X209000000Y-102500000D02*
X209000000Y-89750000D01*
X209000000Y-89750000D02*
X208750000Y-89500000D01*
%TO.N,LowSwitch*%
X208300000Y-103250000D02*
X208300000Y-90050000D01*
X208300000Y-90050000D02*
X208000000Y-89750000D01*
%TO.N,GND*%
X206750000Y-111000000D02*
X206750000Y-112225000D01*
X206750000Y-112225000D02*
X206475000Y-112500000D01*
%TO.N,HighSwitch*%
X202200000Y-114256448D02*
X202340904Y-114115544D01*
X202200000Y-115100000D02*
X202200000Y-114256448D01*
%TO.N,LowSwitch*%
X201500000Y-114115544D02*
X201500000Y-115000000D01*
X201500000Y-115000000D02*
X201400000Y-115100000D01*
X196500000Y-66750000D02*
X201996389Y-66750000D01*
%TO.N,+5V*%
X183000000Y-106450000D02*
X184000000Y-107450000D01*
X183000000Y-106000000D02*
X183000000Y-106450000D01*
X201650000Y-129979232D02*
X201650000Y-129250000D01*
X199729232Y-131900000D02*
X201650000Y-129979232D01*
X199000000Y-131900000D02*
X199729232Y-131900000D01*
X201250000Y-124000000D02*
X201250000Y-124710114D01*
X204050000Y-122000000D02*
X204000000Y-122000000D01*
X204000000Y-122000000D02*
X202750000Y-123250000D01*
X200600000Y-125360114D02*
X200600000Y-126500000D01*
X201250000Y-124710114D02*
X200600000Y-125360114D01*
%TO.N,GND*%
X201250000Y-122500000D02*
X202000000Y-122500000D01*
X202000000Y-123500000D02*
X203500000Y-125000000D01*
X200500000Y-121750000D02*
X201250000Y-122500000D01*
X202000000Y-122500000D02*
X202000000Y-123500000D01*
X200000000Y-121750000D02*
X200500000Y-121750000D01*
X201674000Y-126226000D02*
X201400000Y-126500000D01*
%TO.N,+5V*%
X197300000Y-121600000D02*
X196400000Y-121600000D01*
X196400000Y-121600000D02*
X196000000Y-122000000D01*
X195750000Y-118000000D02*
X196150000Y-117600000D01*
X196150000Y-117600000D02*
X197300000Y-117600000D01*
X202250000Y-118000000D02*
X204050000Y-119800000D01*
X204050000Y-119800000D02*
X204050000Y-122000000D01*
X207250000Y-123500000D02*
X207750000Y-124000000D01*
X207750000Y-124000000D02*
X208700000Y-124000000D01*
X206351000Y-116699000D02*
X207000000Y-116050000D01*
X197300000Y-117600000D02*
X200350000Y-117600000D01*
X207000000Y-116050000D02*
X207000000Y-115100000D01*
X200350000Y-117600000D02*
X200750000Y-118000000D01*
X203271768Y-116699000D02*
X206351000Y-116699000D01*
X202250000Y-118000000D02*
X202250000Y-117720768D01*
X202250000Y-117720768D02*
X203271768Y-116699000D01*
X199000000Y-115100000D02*
X199000000Y-116850000D01*
X199000000Y-116850000D02*
X198250000Y-117600000D01*
X198250000Y-117600000D02*
X197300000Y-117600000D01*
%TO.N,Net-(U5-ANT)*%
X181305000Y-129755000D02*
X180900000Y-129755000D01*
X180900000Y-129755000D02*
X180250000Y-130405000D01*
X180250000Y-130405000D02*
X180250000Y-135750000D01*
X182750000Y-138000000D02*
X182075000Y-138000000D01*
X180250000Y-135750000D02*
X181000000Y-136500000D01*
X182075000Y-138000000D02*
X181975000Y-137900000D01*
%TO.N,+3.3V*%
X182050000Y-134000000D02*
X182100000Y-133950000D01*
X181700000Y-104700000D02*
X181750000Y-104750000D01*
X181700000Y-103000000D02*
X181700000Y-104700000D01*
X181250000Y-134000000D02*
X182050000Y-134000000D01*
X194630000Y-140130000D02*
X194500000Y-140000000D01*
X194630000Y-141000000D02*
X194630000Y-140130000D01*
%TO.N,Vusb*%
X206060000Y-143905000D02*
X206060000Y-144830000D01*
X201160000Y-144833992D02*
X201160000Y-143905000D01*
X206060000Y-144830000D02*
X204140000Y-146750000D01*
X202500000Y-146173992D02*
X201160000Y-144833992D01*
X204140000Y-146750000D02*
X202750000Y-146750000D01*
X202750000Y-146750000D02*
X202500000Y-146500000D01*
X202500000Y-146500000D02*
X202500000Y-146173992D01*
%TO.N,Net-(D1-A)*%
X191500000Y-113250000D02*
X191750000Y-113000000D01*
X191500000Y-116500000D02*
X191500000Y-113250000D01*
%TO.N,GND*%
X205976000Y-116151000D02*
X201500000Y-116151000D01*
X180804000Y-139931000D02*
X180804000Y-141869000D01*
X182000000Y-129255000D02*
X182000000Y-128560000D01*
X181335000Y-146552500D02*
X180750000Y-147137500D01*
X190167000Y-130785000D02*
X192250000Y-128702000D01*
X186820000Y-103159870D02*
X186820000Y-103000000D01*
X205140000Y-101059870D02*
X205140000Y-100900000D01*
X196500000Y-94435000D02*
X198340000Y-94435000D01*
X182500000Y-130255000D02*
X182750000Y-130005000D01*
X195500000Y-100900000D02*
X197100000Y-102500000D01*
X184195000Y-129755000D02*
X183000000Y-129755000D01*
X193075000Y-126000000D02*
X193075000Y-127675000D01*
X206200000Y-115927000D02*
X205976000Y-116151000D01*
X186600000Y-130785000D02*
X186600000Y-130100000D01*
X196230001Y-120000000D02*
X197300000Y-120000000D01*
X186820000Y-100250000D02*
X186820000Y-97155000D01*
X194680000Y-121750000D02*
X194680000Y-121550001D01*
X189250000Y-146250000D02*
X186500000Y-143500000D01*
X209400000Y-139000000D02*
X209400000Y-141200000D01*
X190550000Y-130700000D02*
X189025000Y-132225000D01*
X196001000Y-131076001D02*
X195699999Y-130775000D01*
X202364926Y-132180000D02*
X202369466Y-132175460D01*
X201500000Y-120500000D02*
X200250000Y-121750000D01*
X201400000Y-125550000D02*
X201950000Y-125000000D01*
X182750000Y-130005000D02*
X182000000Y-129255000D01*
X192649000Y-139101000D02*
X193049000Y-139501000D01*
X206200000Y-112974999D02*
X206200000Y-115100000D01*
X207374006Y-136500000D02*
X207369466Y-136495460D01*
X205689466Y-132995460D02*
X206417996Y-132995460D01*
X195303840Y-132411030D02*
X196001000Y-131713870D01*
X206900000Y-98900000D02*
X207251000Y-98549000D01*
X196125000Y-105500000D02*
X195770532Y-105500000D01*
X195500000Y-100900000D02*
X194837501Y-100900000D01*
X194437500Y-137437500D02*
X196437500Y-137437500D01*
X189050000Y-143500000D02*
X186500000Y-143500000D01*
X184834000Y-137399000D02*
X186335000Y-138900000D01*
X207269466Y-136495460D02*
X205569466Y-134795460D01*
X205689466Y-131802467D02*
X205695712Y-131796221D01*
X194475000Y-139159870D02*
X194133870Y-139501000D01*
X179400000Y-103000000D02*
X179400000Y-105612500D01*
X192937500Y-137437500D02*
X192937500Y-137962557D01*
X205225000Y-90000000D02*
X205225000Y-91825000D01*
X186600000Y-130100000D02*
X186500000Y-130000000D01*
X193075000Y-127675000D02*
X192250000Y-128500000D01*
X195500000Y-130775000D02*
X194250000Y-130775000D01*
X201750000Y-139250000D02*
X201750000Y-139885001D01*
X207015000Y-143905000D02*
X207930000Y-144820000D01*
X194000000Y-121750000D02*
X194680000Y-121750000D01*
X186100000Y-62500000D02*
X186100000Y-72000000D01*
X195770532Y-105500000D02*
X194750000Y-104479468D01*
X186600000Y-130785000D02*
X186600000Y-130585001D01*
X194437500Y-137437500D02*
X194437500Y-138436202D01*
X201226130Y-139999000D02*
X200994000Y-140231130D01*
X194837501Y-100900000D02*
X193687501Y-99750000D01*
X186965000Y-130785000D02*
X187050000Y-130700000D01*
X192649000Y-138251057D02*
X192649000Y-139101000D01*
X194750000Y-104479468D02*
X194750000Y-101650000D01*
X191500000Y-99000000D02*
X191600000Y-99100000D01*
X191500000Y-96950000D02*
X193500000Y-94950000D01*
X206200000Y-115100000D02*
X206200000Y-115927000D01*
X205140000Y-100660000D02*
X206900000Y-98900000D01*
X205225000Y-91825000D02*
X204550000Y-92500000D01*
X186820000Y-100750000D02*
X186820000Y-100250000D01*
X206950000Y-102710000D02*
X205140000Y-100900000D01*
X191050000Y-141500000D02*
X189050000Y-143500000D01*
X181910000Y-128560000D02*
X182000000Y-128560000D01*
X201863999Y-139999000D02*
X201226130Y-139999000D01*
X184195000Y-130255000D02*
X184195000Y-129755000D01*
X195270000Y-139795000D02*
X195270000Y-141000000D01*
X186335000Y-141900000D02*
X185617500Y-142617500D01*
X203699870Y-102500000D02*
X205140000Y-101059870D01*
X205576000Y-93526000D02*
X204550000Y-92500000D01*
X206860000Y-143840000D02*
X209450000Y-141250000D01*
X199750000Y-121750000D02*
X200000000Y-121750000D01*
X205750000Y-75050000D02*
X205750000Y-71000000D01*
X179750000Y-126400000D02*
X181910000Y-128560000D01*
X186820000Y-103000000D02*
X186820000Y-100750000D01*
X206950000Y-104500000D02*
X206950000Y-106450000D01*
X185617500Y-142617500D02*
X184985000Y-143250000D01*
X181676130Y-137399000D02*
X184834000Y-137399000D01*
X191500000Y-136000000D02*
X190464870Y-136000000D01*
X207251000Y-94789840D02*
X205987160Y-93526000D01*
X187100000Y-71000000D02*
X186100000Y-72000000D01*
X194475000Y-139000000D02*
X194475000Y-139159870D01*
X184200000Y-130250000D02*
X184195000Y-130255000D01*
X198250000Y-120250000D02*
X199750000Y-121750000D01*
X201400000Y-126500000D02*
X201400000Y-125550000D01*
X202549466Y-132175460D02*
X202369466Y-132175460D01*
X185750000Y-100750000D02*
X185500000Y-101000000D01*
X208500000Y-136500000D02*
X207374006Y-136500000D01*
X190464870Y-136000000D02*
X189963870Y-136501000D01*
X186430000Y-111000000D02*
X186430000Y-103549870D01*
X193075000Y-126000000D02*
X193000000Y-126000000D01*
X189250000Y-147137500D02*
X189250000Y-147000000D01*
X200360000Y-143165000D02*
X200360000Y-143905000D01*
X199800000Y-116050000D02*
X199800000Y-115100000D01*
X203000000Y-125000000D02*
X203500000Y-125000000D01*
X206417996Y-132995460D02*
X207058997Y-133636461D01*
X195699999Y-130775000D02*
X195500000Y-130775000D01*
X203100000Y-77700000D02*
X205750000Y-75050000D01*
X205140000Y-100900000D02*
X205140000Y-100660000D01*
X205689466Y-132995460D02*
X205689466Y-131802467D01*
X206475000Y-112699999D02*
X206200000Y-112974999D01*
X185000000Y-130250000D02*
X184200000Y-130250000D01*
X198340000Y-94435000D02*
X198975000Y-93800000D01*
X184330000Y-129890000D02*
X184195000Y-129755000D01*
X186820000Y-100250000D02*
X187250000Y-100250000D01*
X201950000Y-125000000D02*
X203000000Y-125000000D01*
X200994000Y-141469000D02*
X201525000Y-142000000D01*
X186500000Y-143500000D02*
X185617500Y-142617500D01*
X181335000Y-137900000D02*
X181335000Y-137740130D01*
X202165000Y-140500000D02*
X202165000Y-140300001D01*
X180500000Y-101250000D02*
X179400000Y-102350000D01*
X201525000Y-142000000D02*
X200360000Y-143165000D01*
X196437500Y-137437500D02*
X196500000Y-137500000D01*
X193437500Y-132411030D02*
X195303840Y-132411030D01*
X206950000Y-104500000D02*
X206950000Y-102710000D01*
X192076000Y-142526000D02*
X191050000Y-141500000D01*
X194750000Y-101650000D02*
X195500000Y-100900000D01*
X189025000Y-136199999D02*
X189025000Y-136000000D01*
X186665000Y-91565000D02*
X186665000Y-97000000D01*
X191500000Y-99000000D02*
X191500000Y-96950000D01*
X186600000Y-130785000D02*
X190167000Y-130785000D01*
X201750000Y-139885001D02*
X202165000Y-140300001D01*
X196001000Y-131713870D02*
X196001000Y-131076001D01*
X186335000Y-138900000D02*
X186335000Y-138690000D01*
X200360000Y-143905000D02*
X200205000Y-143905000D01*
X186600000Y-130785000D02*
X186965000Y-130785000D01*
X197100000Y-102500000D02*
X203699870Y-102500000D01*
X193687501Y-99750000D02*
X191600000Y-99750000D01*
X195270000Y-141159870D02*
X195270000Y-141000000D01*
X194250000Y-130500000D02*
X192250000Y-128500000D01*
X201500000Y-116151000D02*
X199901000Y-116151000D01*
X200994000Y-140231130D02*
X200994000Y-141469000D01*
X206860000Y-143905000D02*
X206860000Y-143840000D01*
X179400000Y-102350000D02*
X179400000Y-103000000D01*
X186430000Y-103549870D02*
X186820000Y-103159870D01*
X206475000Y-112500000D02*
X206475000Y-112699999D01*
X209400000Y-141200000D02*
X209450000Y-141250000D01*
X205569466Y-134795460D02*
X205169466Y-134795460D01*
X181335000Y-142400000D02*
X181335000Y-143250000D01*
X181335000Y-137740130D02*
X181676130Y-137399000D01*
X202165000Y-140300001D02*
X201863999Y-139999000D01*
X209000000Y-125100000D02*
X208700000Y-124800000D01*
X183000000Y-129755000D02*
X182750000Y-130005000D01*
X187050000Y-130700000D02*
X190550000Y-130700000D01*
X192937500Y-137962557D02*
X192649000Y-138251057D01*
X209400000Y-139000000D02*
X209400000Y-138525994D01*
X194015000Y-94435000D02*
X193500000Y-94950000D01*
X179400000Y-105612500D02*
X179012500Y-106000000D01*
X181335000Y-143250000D02*
X181335000Y-146552500D01*
X206860000Y-143905000D02*
X207015000Y-143905000D01*
X182000000Y-129255000D02*
X181305000Y-129255000D01*
X200205000Y-143905000D02*
X199290000Y-144820000D01*
X200250000Y-121750000D02*
X200000000Y-121750000D01*
X180804000Y-141869000D02*
X181335000Y-142400000D01*
X205169466Y-134795460D02*
X202549466Y-132175460D01*
X187250000Y-100250000D02*
X187500000Y-100000000D01*
X191600000Y-99750000D02*
X191600000Y-101250000D01*
X197300000Y-120000000D02*
X198250000Y-120000000D01*
X194475000Y-139000000D02*
X195270000Y-139795000D01*
X205750000Y-71000000D02*
X187100000Y-71000000D01*
X186335000Y-138690000D02*
X189025000Y-136000000D01*
X194617379Y-142526000D02*
X192076000Y-142526000D01*
X194475000Y-138473702D02*
X194475000Y-139000000D01*
X192250000Y-128702000D02*
X192250000Y-128500000D01*
X181335000Y-139400000D02*
X181335000Y-137900000D01*
X189326001Y-136501000D02*
X189025000Y-136199999D01*
X193049000Y-139501000D02*
X191050000Y-141500000D01*
X189250000Y-147137500D02*
X189250000Y-146250000D01*
X181335000Y-139400000D02*
X180804000Y-139931000D01*
X194643379Y-142500000D02*
X194617379Y-142526000D01*
X201000000Y-132180000D02*
X202364926Y-132180000D01*
X184985000Y-143250000D02*
X181335000Y-143250000D01*
X193750000Y-139501000D02*
X193049000Y-139501000D01*
X209400000Y-138525994D02*
X207369466Y-136495460D01*
X194133870Y-139501000D02*
X193750000Y-139501000D01*
X186100000Y-91000000D02*
X186665000Y-91565000D01*
X186820000Y-97155000D02*
X186665000Y-97000000D01*
X191600000Y-99100000D02*
X191600000Y-99750000D01*
X181305000Y-130255000D02*
X182500000Y-130255000D01*
X186820000Y-100750000D02*
X185750000Y-100750000D01*
X194437500Y-138436202D02*
X194475000Y-138473702D01*
X198250000Y-120000000D02*
X198250000Y-120250000D01*
X193536130Y-139501000D02*
X193750000Y-139501000D01*
X196500000Y-94435000D02*
X194015000Y-94435000D01*
X201500000Y-116151000D02*
X201500000Y-120500000D01*
X207251000Y-98549000D02*
X207251000Y-94789840D01*
X199901000Y-116151000D02*
X199800000Y-116050000D01*
X189025000Y-132225000D02*
X189025000Y-134500000D01*
X207369466Y-136495460D02*
X207269466Y-136495460D01*
X194250000Y-130775000D02*
X194250000Y-130500000D01*
X193000000Y-126000000D02*
X192000000Y-125000000D01*
X194680000Y-121550001D02*
X196230001Y-120000000D01*
X189025000Y-134500000D02*
X189025000Y-136000000D01*
X206950000Y-106450000D02*
X207000000Y-106500000D01*
X205987160Y-93526000D02*
X205576000Y-93526000D01*
X209000000Y-126000000D02*
X209000000Y-125100000D01*
X189963870Y-136501000D02*
X189326001Y-136501000D01*
X193437500Y-133562500D02*
X193437500Y-132411030D01*
%TO.N,Vusb*%
X196955000Y-95705000D02*
X197000000Y-95750000D01*
X204585000Y-90000000D02*
X203345000Y-90000000D01*
X204585000Y-89800001D02*
X205359001Y-89026000D01*
X201525000Y-140500000D02*
X201525000Y-141200130D01*
X202080000Y-142500000D02*
X202165000Y-142415000D01*
X201055000Y-91500000D02*
X201450000Y-91895000D01*
X196500000Y-95705000D02*
X196955000Y-95705000D01*
X202000000Y-106500000D02*
X202000000Y-105100000D01*
X201160000Y-142980000D02*
X201640000Y-142500000D01*
X201640000Y-142500000D02*
X202080000Y-142500000D01*
X199750000Y-91500000D02*
X201055000Y-91500000D01*
X209400000Y-88000000D02*
X209400000Y-84525000D01*
X203550000Y-108050000D02*
X202000000Y-106500000D01*
X205125000Y-108050000D02*
X205125000Y-108525057D01*
X205359001Y-89026000D02*
X208374000Y-89026000D01*
X209250000Y-112650057D02*
X209250000Y-113500000D01*
X205125000Y-108050000D02*
X203550000Y-108050000D01*
X202165000Y-141840130D02*
X202165000Y-142000000D01*
X203050000Y-106500000D02*
X205050000Y-104500000D01*
X209400000Y-84525000D02*
X209375000Y-84500000D01*
X205125000Y-108525057D02*
X209250000Y-112650057D01*
X208374000Y-89026000D02*
X209400000Y-88000000D01*
X202165000Y-142415000D02*
X202165000Y-142000000D01*
X197000000Y-96750000D02*
X197000000Y-95750000D01*
X202000000Y-105100000D02*
X200000000Y-103100000D01*
X201525000Y-141200130D02*
X202165000Y-141840130D01*
X204585000Y-90000000D02*
X204585000Y-89800001D01*
X203000000Y-141250000D02*
X202915000Y-141250000D01*
X202000000Y-106500000D02*
X203050000Y-106500000D01*
X201160000Y-143905000D02*
X201160000Y-142980000D01*
X203345000Y-90000000D02*
X201450000Y-91895000D01*
X201396000Y-144141000D02*
X201160000Y-143905000D01*
X202915000Y-141250000D02*
X202165000Y-142000000D01*
%TO.N,VDD_PA*%
X190250000Y-126250000D02*
X189723687Y-126250000D01*
X189723687Y-126250000D02*
X188973687Y-125500000D01*
X189665000Y-132835000D02*
X190000000Y-132500000D01*
X189665000Y-134250000D02*
X189665000Y-132835000D01*
X184750000Y-126400000D02*
X188850000Y-126400000D01*
X188850000Y-126400000D02*
X188973687Y-126276313D01*
X188973687Y-126276313D02*
X188973687Y-125500000D01*
X189665000Y-134500000D02*
X189665000Y-134250000D01*
X190899000Y-133899000D02*
X190016000Y-133899000D01*
X190016000Y-133899000D02*
X189665000Y-134250000D01*
X191500000Y-134500000D02*
X190899000Y-133899000D01*
X189665000Y-136000000D02*
X189665000Y-134500000D01*
%TO.N,Net-(U5-TXRX)*%
X185960000Y-129285000D02*
X184225000Y-129285000D01*
X184225000Y-129285000D02*
X184195000Y-129255000D01*
X185899000Y-130724000D02*
X185899000Y-129346000D01*
X185960000Y-130785000D02*
X185899000Y-130724000D01*
X185899000Y-129346000D02*
X185960000Y-129285000D01*
%TO.N,Net-(C6-Pad1)*%
X186600000Y-129285000D02*
X186600000Y-128735000D01*
X186600000Y-128735000D02*
X188335000Y-127000000D01*
%TO.N,+3.3V*%
X183500000Y-133925000D02*
X185000000Y-133925000D01*
X193250000Y-138349696D02*
X193437500Y-138162196D01*
X194630000Y-141199999D02*
X195283379Y-141853378D01*
X193250000Y-138500000D02*
X193250000Y-138349696D01*
X185725000Y-96700000D02*
X186025000Y-97000000D01*
X182100000Y-133950000D02*
X183475000Y-133950000D01*
X193937500Y-133562500D02*
X193937500Y-133134202D01*
X195751370Y-132812030D02*
X196031700Y-132531700D01*
X194259672Y-132812030D02*
X195751370Y-132812030D01*
X181700000Y-103000000D02*
X181700000Y-96700000D01*
X190250000Y-138000000D02*
X190250000Y-137750000D01*
X190250000Y-137750000D02*
X191500000Y-136500000D01*
X194630000Y-141000000D02*
X194630000Y-141199999D01*
X195283379Y-141853378D02*
X195283379Y-142500000D01*
X193437500Y-138162196D02*
X193437500Y-137437500D01*
X193937500Y-133134202D02*
X194259672Y-132812030D01*
X183475000Y-133950000D02*
X183500000Y-133925000D01*
X181700000Y-96700000D02*
X185725000Y-96700000D01*
X185000000Y-134250000D02*
X187463235Y-136713235D01*
X185000000Y-133925000D02*
X185000000Y-134250000D01*
%TO.N,Net-(U4-DVDD)*%
X193937500Y-137437500D02*
X193937500Y-138897500D01*
X193937500Y-138897500D02*
X193835000Y-139000000D01*
%TO.N,Net-(U4-XC2)*%
X194250000Y-131415000D02*
X193585000Y-131415000D01*
X192250000Y-131750000D02*
X192750000Y-132250000D01*
X192937500Y-132437500D02*
X192750000Y-132250000D01*
X192250000Y-130700000D02*
X192250000Y-131750000D01*
X193585000Y-131415000D02*
X192750000Y-132250000D01*
X192937500Y-133562500D02*
X192937500Y-132437500D01*
%TO.N,Net-(U4-XC1)*%
X190550000Y-128500000D02*
X190550000Y-128899998D01*
X195500000Y-131415000D02*
X195121169Y-131415000D01*
X190550000Y-128899998D02*
X189449998Y-130000000D01*
X191750000Y-132500000D02*
X191750000Y-132875000D01*
X195121169Y-131415000D02*
X194948952Y-131587217D01*
X191750000Y-132875000D02*
X192437500Y-133562500D01*
%TO.N,Net-(C13-Pad1)*%
X183475000Y-133310000D02*
X183500000Y-133285000D01*
X183500000Y-133285000D02*
X183500000Y-131450000D01*
X183500000Y-133285000D02*
X185000000Y-133285000D01*
X182100000Y-133310000D02*
X183475000Y-133310000D01*
X182100000Y-133310000D02*
X182500000Y-132910000D01*
X182500000Y-132910000D02*
X182500000Y-131450000D01*
%TO.N,Net-(U5-ANT)*%
X181975000Y-137900000D02*
X181975000Y-139400000D01*
X181975000Y-139400000D02*
X181975000Y-140900000D01*
%TO.N,Net-(C18-Pad1)*%
X186673999Y-140901000D02*
X186975000Y-140599999D01*
X181335000Y-140900000D02*
X181335000Y-141085000D01*
X181975000Y-141725000D02*
X181975000Y-142400000D01*
X186975000Y-140599999D02*
X186975000Y-140400000D01*
X181975000Y-142400000D02*
X183474000Y-140901000D01*
X181335000Y-141085000D02*
X181975000Y-141725000D01*
X186975000Y-138900000D02*
X186975000Y-140400000D01*
X183474000Y-140901000D02*
X186673999Y-140901000D01*
%TO.N,Net-(J2-In)*%
X185599000Y-140400000D02*
X185500000Y-140301000D01*
X185000000Y-144250000D02*
X185700735Y-143549265D01*
X186335000Y-140400000D02*
X185599000Y-140400000D01*
X185000000Y-147137500D02*
X185000000Y-144250000D01*
%TO.N,Net-(U8-VCC)*%
X203463500Y-99648999D02*
X203162499Y-99950000D01*
X204500000Y-100900000D02*
X203550000Y-99950000D01*
X203550000Y-99950000D02*
X202500000Y-99950000D01*
X203162499Y-99950000D02*
X202500000Y-99950000D01*
X206450000Y-95500000D02*
X203463500Y-98486500D01*
X203463500Y-98486500D02*
X203463500Y-99648999D01*
%TO.N,Net-(D2-K)*%
X198400000Y-106450000D02*
X198400000Y-105500000D01*
X197500000Y-109250000D02*
X198750000Y-110500000D01*
X205125000Y-109950000D02*
X202550000Y-109950000D01*
X205125000Y-109950000D02*
X205835000Y-110660000D01*
X197400000Y-109250000D02*
X197400000Y-107450000D01*
X198750000Y-110500000D02*
X202000000Y-110500000D01*
X202550000Y-109950000D02*
X202000000Y-110500000D01*
X197400000Y-107450000D02*
X198400000Y-106450000D01*
X197400000Y-109250000D02*
X197500000Y-109250000D01*
X205835000Y-110660000D02*
X205835000Y-112500000D01*
%TO.N,+5.3V*%
X191600000Y-104400000D02*
X191250000Y-104750000D01*
X187070000Y-108180000D02*
X187070000Y-111000000D01*
X187500000Y-111430000D02*
X187070000Y-111000000D01*
X187250000Y-108000000D02*
X187070000Y-108180000D01*
X187500000Y-116500000D02*
X187500000Y-111430000D01*
X191600000Y-103750000D02*
X191600000Y-104400000D01*
%TO.N,+5V*%
X192500000Y-66750000D02*
X192500000Y-61500000D01*
X184000000Y-103000000D02*
X184000000Y-99250000D01*
X192500000Y-61500000D02*
X189500000Y-61500000D01*
X179500000Y-88600000D02*
X181900000Y-91000000D01*
X183000000Y-106000000D02*
X183000000Y-104000000D01*
X183000000Y-104000000D02*
X184000000Y-103000000D01*
X186180000Y-103000000D02*
X184000000Y-103000000D01*
X201004540Y-132815460D02*
X201000000Y-132820000D01*
X179500000Y-64900000D02*
X179500000Y-88600000D01*
X202369466Y-132815460D02*
X201004540Y-132815460D01*
X184900000Y-59500000D02*
X181900000Y-62500000D01*
X181900000Y-92650000D02*
X181900000Y-91000000D01*
X189500000Y-61500000D02*
X187500000Y-59500000D01*
X183250000Y-94000000D02*
X181900000Y-92650000D01*
X199000000Y-131900000D02*
X199920000Y-132820000D01*
X187500000Y-59500000D02*
X184900000Y-59500000D01*
X181900000Y-62500000D02*
X179500000Y-64900000D01*
X199920000Y-132820000D02*
X201000000Y-132820000D01*
%TO.N,Net-(U3-XTAL2)*%
X205049466Y-133195459D02*
X205748467Y-133894460D01*
X205049466Y-132995460D02*
X202200000Y-130145994D01*
X206468466Y-133894460D02*
X207369466Y-134795460D01*
X205049466Y-132995460D02*
X205049466Y-133195459D01*
X202200000Y-130145994D02*
X202200000Y-126500000D01*
X205748467Y-133894460D02*
X206468466Y-133894460D01*
%TO.N,Net-(U3-XTAL1)*%
X204500000Y-131000000D02*
X205000000Y-131000000D01*
X204379745Y-131120255D02*
X203000000Y-129740509D01*
X204379745Y-131120255D02*
X204500000Y-131000000D01*
X204924006Y-136250000D02*
X205169466Y-136495460D01*
X205055712Y-131796221D02*
X204379745Y-131120255D01*
X203750000Y-136250000D02*
X204924006Y-136250000D01*
X203000000Y-129740509D02*
X203000000Y-126500000D01*
X205169466Y-136495460D02*
X205504540Y-136495460D01*
%TO.N,Net-(U3-UCAP)*%
X195320000Y-121750000D02*
X196270000Y-120800000D01*
X196270000Y-120800000D02*
X197300000Y-120800000D01*
%TO.N,Net-(D1-A)*%
X196125000Y-104550000D02*
X196125000Y-104275000D01*
X194250000Y-107750000D02*
X194250000Y-109250000D01*
X196125000Y-104275000D02*
X195350000Y-103500000D01*
%TO.N,LowSwitch*%
X197550000Y-65700000D02*
X196500000Y-66750000D01*
X201800000Y-65700000D02*
X197550000Y-65700000D01*
%TO.N,HighSwitch*%
X196500000Y-61500000D02*
X201800000Y-61500000D01*
%TO.N,Net-(D9-K)*%
X207500000Y-84500000D02*
X205400000Y-84500000D01*
%TO.N,Net-(D10-K)*%
X207525000Y-88000000D02*
X205400000Y-88000000D01*
%TO.N,Net-(D11-A)*%
X182000000Y-108000000D02*
X184250000Y-108000000D01*
X180887500Y-106887500D02*
X182000000Y-108000000D01*
X184900000Y-107350000D02*
X184900000Y-106000000D01*
X184250000Y-108000000D02*
X184900000Y-107350000D01*
X180887500Y-106000000D02*
X180887500Y-106887500D01*
%TO.N,Net-(D12-A)*%
X194950000Y-123500000D02*
X194950000Y-126000000D01*
%TO.N,+V_Batt*%
X207750000Y-108250000D02*
X207750000Y-101750000D01*
X207000000Y-109000000D02*
X207750000Y-108250000D01*
X198450000Y-88950000D02*
X200000000Y-90500000D01*
X201745000Y-96000000D02*
X201450000Y-95705000D01*
X198450000Y-86500000D02*
X198450000Y-88950000D01*
X203250000Y-96000000D02*
X201745000Y-96000000D01*
X204050000Y-96000000D02*
X204550000Y-95500000D01*
X203250000Y-96000000D02*
X204050000Y-96000000D01*
%TO.N,-V_Batt*%
X194250000Y-86500000D02*
X194250000Y-90750000D01*
X194250000Y-90750000D02*
X194750000Y-91250000D01*
X194750000Y-98250000D02*
X195500000Y-99000000D01*
X194250000Y-86500000D02*
X195224000Y-87474000D01*
X194750000Y-97750000D02*
X194750000Y-98250000D01*
%TO.N,GPIO4*%
X208700000Y-123200000D02*
X207750000Y-123200000D01*
X206649000Y-122099000D02*
X206649000Y-117601000D01*
X207750000Y-123200000D02*
X206649000Y-122099000D01*
X206649000Y-117601000D02*
X207000000Y-117250000D01*
X194250000Y-111250000D02*
X195250000Y-112250000D01*
X195250000Y-112250000D02*
X204750000Y-112250000D01*
X190649000Y-85951000D02*
X190649000Y-107649000D01*
X198900000Y-77700000D02*
X190649000Y-85951000D01*
X190649000Y-107649000D02*
X194250000Y-111250000D01*
%TO.N,GPIO2*%
X204750000Y-117500000D02*
X205400000Y-118150000D01*
X189847000Y-108097000D02*
X191750000Y-110000000D01*
X195315544Y-113565544D02*
X203500000Y-113565544D01*
X205400000Y-118150000D02*
X205400000Y-126500000D01*
X189847000Y-82553000D02*
X189847000Y-108097000D01*
X191750000Y-110000000D02*
X195315544Y-113565544D01*
X194700000Y-77700000D02*
X189847000Y-82553000D01*
%TO.N,GPIO3*%
X206000000Y-117500000D02*
X206000000Y-126300000D01*
X190248000Y-107815100D02*
X193341450Y-110908550D01*
X198900000Y-73500000D02*
X197324000Y-75076000D01*
X195398444Y-112965544D02*
X204392228Y-112965544D01*
X206000000Y-126300000D02*
X206200000Y-126500000D01*
X197324000Y-78708900D02*
X190248000Y-85784900D01*
X193341450Y-110908550D02*
X195398444Y-112965544D01*
X190248000Y-85784900D02*
X190248000Y-107815100D01*
X197324000Y-75076000D02*
X197324000Y-78708900D01*
%TO.N,GPIO1*%
X194700000Y-73500000D02*
X194700000Y-74904099D01*
X189446000Y-78754000D02*
X189446000Y-108446000D01*
X204600000Y-118350000D02*
X204600000Y-126500000D01*
X189446000Y-108446000D02*
X190750000Y-109750000D01*
X190750000Y-109750000D02*
X195500000Y-114500000D01*
X194700000Y-73500000D02*
X189446000Y-78754000D01*
X194700000Y-74701000D02*
X194700000Y-73500000D01*
X195500000Y-114500000D02*
X197500000Y-114500000D01*
X203500000Y-117250000D02*
X204600000Y-118350000D01*
%TO.N,GPIO6*%
X207250000Y-121777000D02*
X207873000Y-122400000D01*
X189045000Y-79750000D02*
X189045000Y-108795000D01*
X207873000Y-122400000D02*
X208700000Y-122400000D01*
X195500000Y-115250000D02*
X197000000Y-115250000D01*
X181900000Y-72000000D02*
X189045000Y-79145000D01*
X189045000Y-108795000D02*
X189750000Y-109500000D01*
X189750000Y-109500000D02*
X195500000Y-115250000D01*
X189045000Y-79145000D02*
X189045000Y-79750000D01*
X207250000Y-121250000D02*
X207250000Y-121777000D01*
%TO.N,GPIO5*%
X189091450Y-109408550D02*
X195750000Y-116067100D01*
X195750000Y-116067100D02*
X195750000Y-116250000D01*
X188644000Y-108500000D02*
X188644000Y-108961100D01*
X188644000Y-88244000D02*
X188644000Y-108500000D01*
X188644000Y-108961100D02*
X189091450Y-109408550D01*
X181900000Y-81500000D02*
X188644000Y-88244000D01*
X207000000Y-124250000D02*
X207000000Y-126500000D01*
%TO.N,D-*%
X203500000Y-146250000D02*
X203225388Y-146250000D01*
X197300000Y-118400000D02*
X198301470Y-118400000D01*
X198301470Y-118400000D02*
X199450735Y-119549265D01*
X202659000Y-145683612D02*
X202659000Y-145091000D01*
X202860000Y-142928000D02*
X203108000Y-142680000D01*
X203225388Y-146250000D02*
X202659000Y-145683612D01*
X202659000Y-145091000D02*
X202860000Y-144890000D01*
X203108000Y-142680000D02*
X203315629Y-142680000D01*
X200250000Y-134100000D02*
X200000000Y-133850000D01*
X200250000Y-139250000D02*
X200250000Y-134100000D01*
X203860000Y-145890000D02*
X203500000Y-146250000D01*
X202860000Y-144890000D02*
X202860000Y-143905000D01*
X202860000Y-143905000D02*
X202860000Y-142928000D01*
X203860000Y-143905000D02*
X203860000Y-145890000D01*
%TO.N,Net-(J1-CC1)*%
X206250000Y-141250000D02*
X206250000Y-139500000D01*
X206750000Y-139000000D02*
X207500000Y-139000000D01*
X203897100Y-141250000D02*
X206250000Y-141250000D01*
X206250000Y-139500000D02*
X206750000Y-139000000D01*
X202360000Y-143905000D02*
X202360000Y-142787100D01*
X202360000Y-142787100D02*
X203897100Y-141250000D01*
%TO.N,D+*%
X199450007Y-134296150D02*
X199450007Y-139246120D01*
X203360000Y-143905000D02*
X203360000Y-145334669D01*
X197300000Y-119200000D02*
X198112091Y-119200000D01*
X203360000Y-145334669D02*
X203260000Y-145434669D01*
X204360000Y-145100735D02*
X204360000Y-143905000D01*
X199233736Y-134079879D02*
X199450007Y-134296150D01*
X204460000Y-145200735D02*
X204360000Y-145100735D01*
X198112091Y-119200000D02*
X199230425Y-120318334D01*
%TO.N,Net-(J1-CC2)*%
X205360000Y-142940000D02*
X205360000Y-143905000D01*
X207050000Y-141250000D02*
X205360000Y-142940000D01*
X207550000Y-141250000D02*
X207050000Y-141250000D01*
%TO.N,Net-(U4-ANT2)*%
X190787103Y-135500000D02*
X191500000Y-135500000D01*
X188336997Y-124000000D02*
X188336997Y-124413003D01*
X188975000Y-127208528D02*
X188975000Y-127000000D01*
X188975000Y-127000000D02*
X189500000Y-127000000D01*
X188336997Y-124413003D02*
X188000000Y-124750000D01*
X187400000Y-128783528D02*
X188975000Y-127208528D01*
X190265000Y-135264705D02*
X190551808Y-135264705D01*
X190551808Y-135264705D02*
X190787103Y-135500000D01*
%TO.N,Net-(U4-ANT1)*%
X189000000Y-123976997D02*
X188976997Y-124000000D01*
X191000000Y-135000000D02*
X191500000Y-135000000D01*
X190500000Y-134500000D02*
X191000000Y-135000000D01*
X188976997Y-124656691D02*
X188976997Y-124000000D01*
X188333687Y-125500000D02*
X188333687Y-125300001D01*
X189000000Y-123250000D02*
X189000000Y-123976997D01*
X188333687Y-125300001D02*
X188976997Y-124656691D01*
%TO.N,Net-(Q3-G2)*%
X200225000Y-100900000D02*
X197775000Y-100900000D01*
%TO.N,Net-(Q3-G1)*%
X200225000Y-99000000D02*
X197775000Y-99000000D01*
%TO.N,Net-(U2-~{STDBY})*%
X203469050Y-91719050D02*
X203469050Y-93390949D01*
X203000000Y-91250000D02*
X203469050Y-91719050D01*
X202250000Y-85750000D02*
X202250000Y-90000000D01*
X203500000Y-84500000D02*
X202250000Y-85750000D01*
X203469050Y-93390949D02*
X202424999Y-94435000D01*
X202424999Y-94435000D02*
X201450000Y-94435000D01*
%TO.N,Net-(U2-~{CHRG})*%
X202868050Y-92317816D02*
X202020866Y-93165000D01*
X203500000Y-89150000D02*
X203750000Y-89400000D01*
X203500000Y-88000000D02*
X203500000Y-89150000D01*
X202020866Y-93165000D02*
X201450000Y-93165000D01*
%TO.N,Net-(U2-PROG)*%
X193615000Y-93165000D02*
X193500000Y-93050000D01*
X196500000Y-93165000D02*
X193615000Y-93165000D01*
%TO.N,Net-(U4-IREF)*%
X191875000Y-137625000D02*
X192250000Y-137625000D01*
X191750000Y-138750000D02*
X191750000Y-137750000D01*
X192950000Y-140800000D02*
X193500000Y-140250000D01*
X191750000Y-137750000D02*
X191875000Y-137625000D01*
X192250000Y-137625000D02*
X192437500Y-137437500D01*
X192950000Y-141500000D02*
X192950000Y-140800000D01*
%TO.N,Net-(U5-RXEN)*%
X183000000Y-127150000D02*
X183000000Y-128560000D01*
X179750000Y-124500000D02*
X181650000Y-126400000D01*
X182250000Y-126400000D02*
X183000000Y-127150000D01*
X181650000Y-126400000D02*
X182250000Y-126400000D01*
%TO.N,CE*%
X209000000Y-127000000D02*
X209751000Y-126249000D01*
X209751000Y-126249000D02*
X209751000Y-121824000D01*
X209527000Y-121600000D02*
X208700000Y-121600000D01*
X209751000Y-121824000D02*
X209527000Y-121600000D01*
X195375000Y-136500000D02*
X198850007Y-136500000D01*
%TO.N,Net-(U5-TXEN)*%
X183500000Y-125750000D02*
X183500000Y-128560000D01*
X184750000Y-124500000D02*
X183500000Y-125750000D01*
%TO.N,Net-(U8-GND)*%
X205250000Y-97750000D02*
X205250000Y-98650000D01*
X202500000Y-98601470D02*
X203425735Y-97675735D01*
X205250000Y-98650000D02*
X205000000Y-98900000D01*
X202500000Y-99000000D02*
X202500000Y-98601470D01*
%TO.N,Net-(U8-CS)*%
X199250000Y-97750000D02*
X200250000Y-96750000D01*
X199200000Y-99950000D02*
X199000000Y-99750000D01*
X207500000Y-93550000D02*
X206450000Y-92500000D01*
X200225000Y-99950000D02*
X199200000Y-99950000D01*
X200250000Y-96750000D02*
X204000000Y-96750000D01*
X207500000Y-93750000D02*
X207500000Y-93550000D01*
%TO.N,Net-(U9-FB)*%
X195475000Y-106450000D02*
X196125000Y-106450000D01*
X193500000Y-104475000D02*
X195475000Y-106450000D01*
X193500000Y-103750000D02*
X193500000Y-104475000D01*
X193500000Y-101250000D02*
X193500000Y-103750000D01*
%TO.N,Net-(U3-~{RESET})*%
X199800000Y-127300000D02*
X200250000Y-127750000D01*
X199250000Y-130250000D02*
X199000000Y-130000000D01*
X200600000Y-130250000D02*
X199250000Y-130250000D01*
X199800000Y-126500000D02*
X199800000Y-127300000D01*
%TO.N,Net-(U3-PB7)*%
X193050000Y-124050000D02*
X193750000Y-124750000D01*
X193050000Y-123500000D02*
X193050000Y-124050000D01*
X198000000Y-126500000D02*
X199000000Y-126500000D01*
%TO.N,CSN*%
X197056451Y-136000000D02*
X198536966Y-134519485D01*
X198500000Y-129000000D02*
X200750000Y-129000000D01*
X200750000Y-129000000D02*
X201125000Y-128625000D01*
X199651000Y-122400000D02*
X197300000Y-122400000D01*
X195375000Y-136000000D02*
X197056451Y-136000000D01*
X200251000Y-123000000D02*
X199651000Y-122400000D01*
X201125000Y-128625000D02*
X201388259Y-128361741D01*
X201388259Y-128361741D02*
X201600000Y-128361741D01*
%TO.N,IRQ*%
X194437500Y-133562500D02*
X194750000Y-133250000D01*
X203750000Y-128250000D02*
X203750000Y-126550000D01*
X194750000Y-133250000D02*
X200630130Y-133250000D01*
X203750000Y-126550000D02*
X203800000Y-126500000D01*
X200630130Y-133250000D02*
X200880130Y-133500000D01*
X200880130Y-133500000D02*
X203000000Y-133500000D01*
%TO.N,MOSI*%
X197232700Y-126750000D02*
X197232700Y-125767300D01*
X198351000Y-124101000D02*
X198250000Y-124000000D01*
X197959700Y-125767300D02*
X198351000Y-125376000D01*
X197232700Y-125767300D02*
X197959700Y-125767300D01*
X196091511Y-135000000D02*
X197034244Y-134057267D01*
X195375000Y-135000000D02*
X196091511Y-135000000D01*
X198250000Y-124000000D02*
X197300000Y-124000000D01*
X198351000Y-125376000D02*
X198351000Y-124101000D01*
%TO.N,SCK*%
X199650057Y-128000000D02*
X200001057Y-128351000D01*
X200498943Y-128351000D02*
X201086257Y-127763686D01*
X198251000Y-128000000D02*
X199650057Y-128000000D01*
X195375000Y-135500000D02*
X196475709Y-135500000D01*
X201086257Y-127763686D02*
X201086257Y-127748498D01*
X200100000Y-125080882D02*
X200100000Y-123750000D01*
X200100000Y-123750000D02*
X199550000Y-123200000D01*
X199550000Y-123200000D02*
X197300000Y-123200000D01*
X196475709Y-135500000D02*
X197829260Y-134146449D01*
X200001057Y-128351000D02*
X200498943Y-128351000D01*
X198001000Y-127750000D02*
X198251000Y-128000000D01*
%TO.N,MISO*%
X195649265Y-134500000D02*
X196250000Y-133899265D01*
X195375000Y-134500000D02*
X195649265Y-134500000D01*
X196500000Y-125600000D02*
X197300000Y-124800000D01*
X196500000Y-126000000D02*
X196500000Y-125600000D01*
%TD*%
M02*
