%TF.GenerationSoftware,KiCad,Pcbnew,9.0.1*%
%TF.CreationDate,2025-07-21T15:53:40-04:00*%
%TF.ProjectId,wrangler,7772616e-676c-4657-922e-6b696361645f,rev?*%
%TF.SameCoordinates,Original*%
%TF.FileFunction,Soldermask,Top*%
%TF.FilePolarity,Negative*%
%FSLAX46Y46*%
G04 Gerber Fmt 4.6, Leading zero omitted, Abs format (unit mm)*
G04 Created by KiCad (PCBNEW 9.0.1) date 2025-07-21 15:53:40*
%MOMM*%
%LPD*%
G01*
G04 APERTURE LIST*
G04 Aperture macros list*
%AMRoundRect*
0 Rectangle with rounded corners*
0 $1 Rounding radius*
0 $2 $3 $4 $5 $6 $7 $8 $9 X,Y pos of 4 corners*
0 Add a 4 corners polygon primitive as box body*
4,1,4,$2,$3,$4,$5,$6,$7,$8,$9,$2,$3,0*
0 Add four circle primitives for the rounded corners*
1,1,$1+$1,$2,$3*
1,1,$1+$1,$4,$5*
1,1,$1+$1,$6,$7*
1,1,$1+$1,$8,$9*
0 Add four rect primitives between the rounded corners*
20,1,$1+$1,$2,$3,$4,$5,0*
20,1,$1+$1,$4,$5,$6,$7,0*
20,1,$1+$1,$6,$7,$8,$9,0*
20,1,$1+$1,$8,$9,$2,$3,0*%
G04 Aperture macros list end*
%ADD10RoundRect,0.100000X-0.130000X-0.100000X0.130000X-0.100000X0.130000X0.100000X-0.130000X0.100000X0*%
%ADD11RoundRect,0.250000X-1.000000X-0.650000X1.000000X-0.650000X1.000000X0.650000X-1.000000X0.650000X0*%
%ADD12RoundRect,0.100000X0.130000X0.100000X-0.130000X0.100000X-0.130000X-0.100000X0.130000X-0.100000X0*%
%ADD13RoundRect,0.243750X-0.243750X-0.456250X0.243750X-0.456250X0.243750X0.456250X-0.243750X0.456250X0*%
%ADD14RoundRect,0.150000X-0.587500X-0.150000X0.587500X-0.150000X0.587500X0.150000X-0.587500X0.150000X0*%
%ADD15RoundRect,0.100000X-0.100000X0.130000X-0.100000X-0.130000X0.100000X-0.130000X0.100000X0.130000X0*%
%ADD16RoundRect,0.250000X-0.475000X0.250000X-0.475000X-0.250000X0.475000X-0.250000X0.475000X0.250000X0*%
%ADD17RoundRect,0.250000X0.250000X0.475000X-0.250000X0.475000X-0.250000X-0.475000X0.250000X-0.475000X0*%
%ADD18RoundRect,0.250000X0.475000X-0.250000X0.475000X0.250000X-0.475000X0.250000X-0.475000X-0.250000X0*%
%ADD19RoundRect,0.250000X-0.250000X-0.475000X0.250000X-0.475000X0.250000X0.475000X-0.250000X0.475000X0*%
%ADD20RoundRect,0.250000X0.275000X0.700000X-0.275000X0.700000X-0.275000X-0.700000X0.275000X-0.700000X0*%
%ADD21RoundRect,0.100000X0.100000X-0.130000X0.100000X0.130000X-0.100000X0.130000X-0.100000X-0.130000X0*%
%ADD22RoundRect,0.150000X-0.512500X-0.150000X0.512500X-0.150000X0.512500X0.150000X-0.512500X0.150000X0*%
%ADD23C,2.775000*%
%ADD24RoundRect,0.059250X0.447750X0.177750X-0.447750X0.177750X-0.447750X-0.177750X0.447750X-0.177750X0*%
%ADD25RoundRect,0.059250X0.177750X0.447750X-0.177750X0.447750X-0.177750X-0.447750X0.177750X-0.447750X0*%
%ADD26RoundRect,0.102000X0.850000X0.850000X-0.850000X0.850000X-0.850000X-0.850000X0.850000X-0.850000X0*%
%ADD27RoundRect,0.375000X0.375000X-0.625000X0.375000X0.625000X-0.375000X0.625000X-0.375000X-0.625000X0*%
%ADD28RoundRect,0.500000X1.400000X-0.500000X1.400000X0.500000X-1.400000X0.500000X-1.400000X-0.500000X0*%
%ADD29C,0.650000*%
%ADD30R,0.600000X1.450000*%
%ADD31R,0.300000X1.450000*%
%ADD32O,1.000000X2.100000*%
%ADD33O,1.000000X1.600000*%
%ADD34RoundRect,0.250000X0.650000X-1.000000X0.650000X1.000000X-0.650000X1.000000X-0.650000X-1.000000X0*%
%ADD35R,2.550000X2.550000*%
%ADD36C,2.550000*%
%ADD37R,1.400000X1.200000*%
%ADD38RoundRect,0.150000X-0.825000X-0.150000X0.825000X-0.150000X0.825000X0.150000X-0.825000X0.150000X0*%
%ADD39R,2.410000X3.300000*%
%ADD40RoundRect,0.062500X0.350000X0.062500X-0.350000X0.062500X-0.350000X-0.062500X0.350000X-0.062500X0*%
%ADD41RoundRect,0.062500X0.062500X0.350000X-0.062500X0.350000X-0.062500X-0.350000X0.062500X-0.350000X0*%
%ADD42R,2.500000X2.500000*%
%ADD43R,1.500000X5.080000*%
%ADD44R,1.200000X1.400000*%
%ADD45R,1.500000X0.550000*%
%ADD46R,0.550000X1.500000*%
G04 APERTURE END LIST*
D10*
%TO.C,C10*%
X193835000Y-139000000D03*
X194475000Y-139000000D03*
%TD*%
D11*
%TO.C,D1*%
X187500000Y-116500000D03*
X191500000Y-116500000D03*
%TD*%
D12*
%TO.C,C17*%
X181975000Y-139400000D03*
X181335000Y-139400000D03*
%TD*%
D11*
%TO.C,D3*%
X192500000Y-66750000D03*
X196500000Y-66750000D03*
%TD*%
D13*
%TO.C,D12*%
X193075000Y-126000000D03*
X194950000Y-126000000D03*
%TD*%
D12*
%TO.C,C22*%
X205140000Y-100900000D03*
X204500000Y-100900000D03*
%TD*%
%TO.C,C16*%
X181975000Y-137900000D03*
X181335000Y-137900000D03*
%TD*%
D14*
%TO.C,Q2*%
X205125000Y-108050000D03*
X205125000Y-109950000D03*
X207000000Y-109000000D03*
%TD*%
D15*
%TO.C,C14*%
X183500000Y-133285000D03*
X183500000Y-133925000D03*
%TD*%
D16*
%TO.C,R8*%
X184750000Y-124500000D03*
X184750000Y-126400000D03*
%TD*%
D10*
%TO.C,L3*%
X188335000Y-127000000D03*
X188975000Y-127000000D03*
%TD*%
D17*
%TO.C,R12*%
X206900000Y-98900000D03*
X205000000Y-98900000D03*
%TD*%
D18*
%TO.C,R3*%
X193500000Y-94950000D03*
X193500000Y-93050000D03*
%TD*%
D19*
%TO.C,R9*%
X205050000Y-104500000D03*
X206950000Y-104500000D03*
%TD*%
%TO.C,R5*%
X191050000Y-141500000D03*
X192950000Y-141500000D03*
%TD*%
D17*
%TO.C,R10*%
X184900000Y-106000000D03*
X183000000Y-106000000D03*
%TD*%
D12*
%TO.C,C20*%
X186975000Y-141900000D03*
X186335000Y-141900000D03*
%TD*%
D20*
%TO.C,L5*%
X197400000Y-109250000D03*
X194250000Y-109250000D03*
%TD*%
D12*
%TO.C,C19*%
X186975000Y-138900000D03*
X186335000Y-138900000D03*
%TD*%
D21*
%TO.C,C28*%
X201000000Y-132820000D03*
X201000000Y-132180000D03*
%TD*%
D17*
%TO.C,R14*%
X206450000Y-95500000D03*
X204550000Y-95500000D03*
%TD*%
D22*
%TO.C,U8*%
X200225000Y-99000000D03*
X200225000Y-99950000D03*
X200225000Y-100900000D03*
X202500000Y-100900000D03*
X202500000Y-99950000D03*
X202500000Y-99000000D03*
%TD*%
D19*
%TO.C,R16*%
X191600000Y-101250000D03*
X193500000Y-101250000D03*
%TD*%
D10*
%TO.C,C21*%
X201525000Y-142000000D03*
X202165000Y-142000000D03*
%TD*%
D12*
%TO.C,L2*%
X188973687Y-125500000D03*
X188333687Y-125500000D03*
%TD*%
%TO.C,C6*%
X186600000Y-129285000D03*
X185960000Y-129285000D03*
%TD*%
D16*
%TO.C,R6*%
X182250000Y-124500000D03*
X182250000Y-126400000D03*
%TD*%
D10*
%TO.C,C23*%
X205835000Y-112500000D03*
X206475000Y-112500000D03*
%TD*%
D17*
%TO.C,R13*%
X206450000Y-92500000D03*
X204550000Y-92500000D03*
%TD*%
D22*
%TO.C,U9*%
X196125000Y-104550000D03*
X196125000Y-105500000D03*
X196125000Y-106450000D03*
X198400000Y-106450000D03*
X198400000Y-105500000D03*
X198400000Y-104550000D03*
%TD*%
D10*
%TO.C,C30*%
X205049466Y-132995460D03*
X205689466Y-132995460D03*
%TD*%
D21*
%TO.C,C29*%
X202369466Y-132815460D03*
X202369466Y-132175460D03*
%TD*%
D12*
%TO.C,L6*%
X186975000Y-140400000D03*
X186335000Y-140400000D03*
%TD*%
D21*
%TO.C,C11*%
X194250000Y-131415000D03*
X194250000Y-130775000D03*
%TD*%
%TO.C,C12*%
X195500000Y-131415000D03*
X195500000Y-130775000D03*
%TD*%
D19*
%TO.C,R19*%
X193050000Y-123500000D03*
X194950000Y-123500000D03*
%TD*%
D12*
%TO.C,C8*%
X195283379Y-142500000D03*
X194643379Y-142500000D03*
%TD*%
D23*
%TO.C,J-LED1*%
X186100000Y-62500000D03*
X181900000Y-62500000D03*
%TD*%
D10*
%TO.C,C31*%
X205055712Y-131796221D03*
X205695712Y-131796221D03*
%TD*%
D18*
%TO.C,R7*%
X179750000Y-126400000D03*
X179750000Y-124500000D03*
%TD*%
D10*
%TO.C,C24*%
X186430000Y-111000000D03*
X187070000Y-111000000D03*
%TD*%
D23*
%TO.C,J-Trigger1*%
X186100000Y-81500000D03*
X181900000Y-81500000D03*
%TD*%
D13*
%TO.C,D10*%
X207525000Y-88000000D03*
X209400000Y-88000000D03*
%TD*%
D24*
%TO.C,U5*%
X184195000Y-130755000D03*
X184195000Y-130255000D03*
X184195000Y-129755000D03*
X184195000Y-129255000D03*
D25*
X183500000Y-128560000D03*
X183000000Y-128560000D03*
X182500000Y-128560000D03*
X182000000Y-128560000D03*
D24*
X181305000Y-129255000D03*
X181305000Y-129755000D03*
X181305000Y-130255000D03*
X181305000Y-130755000D03*
D25*
X182000000Y-131450000D03*
X182500000Y-131450000D03*
X183000000Y-131450000D03*
X183500000Y-131450000D03*
D26*
X182750000Y-130005000D03*
%TD*%
D12*
%TO.C,C7*%
X186600000Y-130785000D03*
X185960000Y-130785000D03*
%TD*%
D10*
%TO.C,C26*%
X186025000Y-97000000D03*
X186665000Y-97000000D03*
%TD*%
D17*
%TO.C,R15*%
X193500000Y-103750000D03*
X191600000Y-103750000D03*
%TD*%
D23*
%TO.C,J-BattLED1*%
X186100000Y-91000000D03*
X181900000Y-91000000D03*
%TD*%
D19*
%TO.C,R2*%
X203500000Y-88000000D03*
X205400000Y-88000000D03*
%TD*%
D27*
%TO.C,U6*%
X179400000Y-103000000D03*
X181700000Y-103000000D03*
D28*
X181700000Y-96700000D03*
D27*
X184000000Y-103000000D03*
%TD*%
D12*
%TO.C,C5*%
X189665000Y-136000000D03*
X189025000Y-136000000D03*
%TD*%
%TO.C,C4*%
X189665000Y-134500000D03*
X189025000Y-134500000D03*
%TD*%
D13*
%TO.C,D9*%
X207500000Y-84500000D03*
X209375000Y-84500000D03*
%TD*%
D12*
%TO.C,C32*%
X195320000Y-121750000D03*
X194680000Y-121750000D03*
%TD*%
D17*
%TO.C,R18*%
X209450000Y-141250000D03*
X207550000Y-141250000D03*
%TD*%
D12*
%TO.C,C18*%
X181975000Y-142400000D03*
X181335000Y-142400000D03*
%TD*%
D29*
%TO.C,J1*%
X200720000Y-145350000D03*
X206500000Y-145350000D03*
D30*
X200360000Y-143905000D03*
X201160000Y-143905000D03*
D31*
X202360000Y-143905000D03*
X203360000Y-143905000D03*
X203860000Y-143905000D03*
X204860000Y-143905000D03*
D30*
X206060000Y-143905000D03*
X206860000Y-143905000D03*
X206860000Y-143905000D03*
X206060000Y-143905000D03*
D31*
X205360000Y-143905000D03*
X204360000Y-143905000D03*
X202860000Y-143905000D03*
X201860000Y-143905000D03*
D30*
X201160000Y-143905000D03*
X200360000Y-143905000D03*
D32*
X199290000Y-144820000D03*
D33*
X199290000Y-149000000D03*
D32*
X207930000Y-144820000D03*
D33*
X207930000Y-149000000D03*
%TD*%
D34*
%TO.C,D2*%
X202000000Y-110500000D03*
X202000000Y-106500000D03*
%TD*%
D12*
%TO.C,C9*%
X195270000Y-141000000D03*
X194630000Y-141000000D03*
%TD*%
D19*
%TO.C,R1*%
X203500000Y-84500000D03*
X205400000Y-84500000D03*
%TD*%
D35*
%TO.C,J-Joystick1*%
X194700000Y-73500000D03*
D36*
X194700000Y-77700000D03*
X198900000Y-73500000D03*
X198900000Y-77700000D03*
X203100000Y-73500000D03*
X203100000Y-77700000D03*
%TD*%
D15*
%TO.C,C13*%
X182100000Y-133310000D03*
X182100000Y-133950000D03*
%TD*%
D11*
%TO.C,D4*%
X192500000Y-61500000D03*
X196500000Y-61500000D03*
%TD*%
D37*
%TO.C,Y2*%
X205169466Y-136495460D03*
X207369466Y-136495460D03*
X207369466Y-134795460D03*
X205169466Y-134795460D03*
%TD*%
D23*
%TO.C,J-18650*%
X194250000Y-86500000D03*
X198450000Y-86500000D03*
%TD*%
D16*
%TO.C,R17*%
X199000000Y-130000000D03*
X199000000Y-131900000D03*
%TD*%
D38*
%TO.C,U2*%
X196500000Y-91895000D03*
X196500000Y-93165000D03*
X196500000Y-94435000D03*
X196500000Y-95705000D03*
X201450000Y-95705000D03*
X201450000Y-94435000D03*
X201450000Y-93165000D03*
X201450000Y-91895000D03*
D39*
X198975000Y-93800000D03*
%TD*%
D35*
%TO.C,J-PowerSwitch1*%
X201800000Y-61500000D03*
D36*
X201800000Y-65700000D03*
X206000000Y-61500000D03*
X206000000Y-65700000D03*
%TD*%
D15*
%TO.C,C15*%
X185000000Y-133285000D03*
X185000000Y-133925000D03*
%TD*%
D40*
%TO.C,U4*%
X195375000Y-136500000D03*
X195375000Y-136000000D03*
X195375000Y-135500000D03*
X195375000Y-135000000D03*
X195375000Y-134500000D03*
D41*
X194437500Y-133562500D03*
X193937500Y-133562500D03*
X193437500Y-133562500D03*
X192937500Y-133562500D03*
X192437500Y-133562500D03*
D40*
X191500000Y-134500000D03*
X191500000Y-135000000D03*
X191500000Y-135500000D03*
X191500000Y-136000000D03*
X191500000Y-136500000D03*
D41*
X192437500Y-137437500D03*
X192937500Y-137437500D03*
X193437500Y-137437500D03*
X193937500Y-137437500D03*
X194437500Y-137437500D03*
D42*
X193437500Y-135500000D03*
%TD*%
D12*
%TO.C,L1*%
X188976997Y-124000000D03*
X188336997Y-124000000D03*
%TD*%
D10*
%TO.C,C1*%
X204585000Y-90000000D03*
X205225000Y-90000000D03*
%TD*%
D23*
%TO.C,J-Spare1*%
X186100000Y-72000000D03*
X181900000Y-72000000D03*
%TD*%
D13*
%TO.C,D11*%
X179012500Y-106000000D03*
X180887500Y-106000000D03*
%TD*%
D10*
%TO.C,C25*%
X186180000Y-103000000D03*
X186820000Y-103000000D03*
%TD*%
%TO.C,C27*%
X201525000Y-140500000D03*
X202165000Y-140500000D03*
%TD*%
D43*
%TO.C,J2*%
X185000000Y-147137500D03*
X189250000Y-147137500D03*
X180750000Y-147137500D03*
%TD*%
D12*
%TO.C,L4*%
X181975000Y-140900000D03*
X181335000Y-140900000D03*
%TD*%
D44*
%TO.C,Y1*%
X192250000Y-130700000D03*
X192250000Y-128500000D03*
X190550000Y-128500000D03*
X190550000Y-130700000D03*
%TD*%
D22*
%TO.C,Q3*%
X195500000Y-99000000D03*
X195500000Y-99950000D03*
X195500000Y-100900000D03*
X197775000Y-100900000D03*
X197775000Y-99950000D03*
X197775000Y-99000000D03*
%TD*%
D17*
%TO.C,R11*%
X209400000Y-139000000D03*
X207500000Y-139000000D03*
%TD*%
D45*
%TO.C,U3*%
X197300000Y-116800000D03*
X197300000Y-117600000D03*
X197300000Y-118400000D03*
X197300000Y-119200000D03*
X197300000Y-120000000D03*
X197300000Y-120800000D03*
X197300000Y-121600000D03*
X197300000Y-122400000D03*
X197300000Y-123200000D03*
X197300000Y-124000000D03*
X197300000Y-124800000D03*
D46*
X199000000Y-126500000D03*
X199800000Y-126500000D03*
X200600000Y-126500000D03*
X201400000Y-126500000D03*
X202200000Y-126500000D03*
X203000000Y-126500000D03*
X203800000Y-126500000D03*
X204600000Y-126500000D03*
X205400000Y-126500000D03*
X206200000Y-126500000D03*
X207000000Y-126500000D03*
D45*
X208700000Y-124800000D03*
X208700000Y-124000000D03*
X208700000Y-123200000D03*
X208700000Y-122400000D03*
X208700000Y-121600000D03*
X208700000Y-120800000D03*
X208700000Y-120000000D03*
X208700000Y-119200000D03*
X208700000Y-118400000D03*
X208700000Y-117600000D03*
X208700000Y-116800000D03*
D46*
X207000000Y-115100000D03*
X206200000Y-115100000D03*
X205400000Y-115100000D03*
X204600000Y-115100000D03*
X203800000Y-115100000D03*
X203000000Y-115100000D03*
X202200000Y-115100000D03*
X201400000Y-115100000D03*
X200600000Y-115100000D03*
X199800000Y-115100000D03*
X199000000Y-115100000D03*
%TD*%
M02*
