M48
; DRILL file {KiCad 9.0.1} date 2025-07-21T15:53:44-0400
; FORMAT={-:-/ absolute / metric / decimal}
; #@! TF.CreationDate,2025-07-21T15:53:44-04:00
; #@! TF.GenerationSoftware,Kicad,Pcbnew,9.0.1
; #@! TF.FileFunction,Plated,1,2,PTH
FMAT,2
METRIC
; #@! TA.AperFunction,Plated,PTH,ComponentDrill
T1C0.200
; #@! TA.AperFunction,Plated,PTH,ViaDrill
T2C0.300
; #@! TA.AperFunction,Plated,PTH,ComponentDrill
T3C0.600
; #@! TA.AperFunction,Plated,PTH,ComponentDrill
T4C1.700
; #@! TA.AperFunction,Plated,PTH,ComponentDrill
T5C1.850
%
G90
G05
T1
X198.275Y-92.6
X198.275Y-93.8
X198.275Y-95.0
X199.675Y-92.6
X199.675Y-93.8
X199.675Y-95.0
T2
X180.5Y-101.25
X180.75Y-147.137
X181.0Y-136.5
X181.25Y-134.0
X181.75Y-104.75
X182.75Y-138.0
X183.0Y-123.5
X183.25Y-94.0
X184.0Y-99.25
X184.0Y-107.45
X185.0Y-130.25
X185.5Y-101.0
X185.5Y-140.301
X185.701Y-143.549
X186.5Y-130.0
X187.065Y-141.882
X187.25Y-108.0
X187.4Y-128.784
X187.463Y-136.713
X187.5Y-100.0
X188.0Y-124.75
X189.0Y-123.25
X189.25Y-147.137
X189.45Y-130.0
X189.5Y-127.0
X190.0Y-132.5
X190.25Y-126.25
X190.25Y-138.0
X190.265Y-135.265
X190.5Y-134.5
X190.75Y-143.75
X191.25Y-104.75
X191.5Y-99.0
X191.75Y-113.0
X191.75Y-132.5
X191.75Y-138.75
X192.0Y-125.0
X193.25Y-138.5
X193.5Y-140.25
X193.75Y-124.75
X194.0Y-121.75
X194.25Y-107.75
X194.5Y-140.0
X194.75Y-91.25
X194.75Y-97.75
X194.949Y-131.587
X195.35Y-103.5
X195.75Y-116.25
X195.75Y-118.0
X196.0Y-122.0
X196.032Y-132.532
X196.25Y-133.899
X196.5Y-126.0
X196.5Y-137.5
X197.0Y-95.75
X197.0Y-96.75
X197.0Y-115.25
X197.034Y-134.057
X197.233Y-126.75
X197.5Y-114.5
X197.829Y-134.146
X198.0Y-126.5
X198.001Y-127.75
X198.5Y-129.0
X198.537Y-134.519
X198.85Y-136.5
X199.0Y-99.75
X199.23Y-120.318
X199.234Y-134.08
X199.25Y-97.75
X199.45Y-139.246
X199.451Y-119.549
X199.75Y-91.5
X200.0Y-90.5
X200.0Y-103.1
X200.0Y-133.85
X200.1Y-125.081
X200.25Y-127.75
X200.25Y-139.25
X200.251Y-123.0
X200.6Y-130.25
X200.75Y-118.0
X201.086Y-127.748
X201.25Y-124.0
X201.5Y-114.116
X201.6Y-128.362
X201.65Y-129.25
X201.75Y-139.25
X202.25Y-90.0
X202.25Y-118.0
X202.341Y-114.116
X202.75Y-123.25
X202.868Y-92.318
X203.0Y-91.25
X203.0Y-133.5
X203.0Y-141.25
X203.25Y-96.0
X203.26Y-145.435
X203.316Y-142.68
X203.426Y-97.676
X203.5Y-113.566
X203.5Y-117.25
X203.5Y-125.0
X203.75Y-89.4
X203.75Y-128.25
X203.75Y-136.25
X204.0Y-96.75
X204.05Y-122.0
X204.392Y-112.966
X204.46Y-145.201
X204.75Y-112.25
X204.75Y-117.5
X205.0Y-131.0
X205.25Y-97.75
X206.0Y-117.5
X206.75Y-111.0
X207.0Y-106.5
X207.0Y-117.25
X207.0Y-124.25
X207.059Y-133.636
X207.25Y-121.25
X207.25Y-123.5
X207.5Y-93.75
X207.75Y-101.75
X208.0Y-89.75
X208.3Y-103.25
X208.5Y-136.5
X208.75Y-89.5
X209.0Y-102.5
X209.0Y-126.0
X209.0Y-127.0
X209.25Y-113.5
T4
X194.7Y-73.5
X194.7Y-77.7
X198.9Y-73.5
X198.9Y-77.7
X201.8Y-61.5
X201.8Y-65.7
X203.1Y-73.5
X203.1Y-77.7
X206.0Y-61.5
X206.0Y-65.7
T5
X181.9Y-62.5
X181.9Y-72.0
X181.9Y-81.5
X181.9Y-91.0
X186.1Y-62.5
X186.1Y-72.0
X186.1Y-81.5
X186.1Y-91.0
X194.25Y-86.5
X198.45Y-86.5
T3
G00X199.29Y-144.27
M15
G01X199.29Y-145.37
M16
G05
G00X199.29Y-148.7
M15
G01X199.29Y-149.3
M16
G05
G00X207.93Y-144.27
M15
G01X207.93Y-145.37
M16
G05
G00X207.93Y-148.7
M15
G01X207.93Y-149.3
M16
G05
M30
